<?xml version="1.0" encoding="UTF-8"?>
<svg xmlns="http://www.w3.org/2000/svg" viewBox="0 0 1920 960">
  <g id="Layer_2">
    <rect x="1440" y="480" width="480" height="480" style="fill: #9fccf2;"/>
    <rect x="960" y="480" width="480" height="480" style="fill: #eea340;"/>
    <rect x="480" y="480" width="480" height="480" style="fill: #b0cbdc;"/>
    <rect y="479.59" width="480" height="480" style="fill: #efcbe9;"/>
    <rect x="1440" width="480" height="480" style="fill: #cc786a;"/>
    <rect x="960" y="0" width="480" height="480" style="fill: #a79cfd;"/>
    <rect x="480" y="0" width="480" height="480" style="fill: #c8f49e;"/>
    <rect x="0" y="0" width="480" height="480" style="fill: #d39d67;"/>
  </g>
  <g id="Layer_3">
    <path d="M183.25,386.76c-12.49-13.63-27.53-27.81-39.45-41.92-6.31-7.47-6.95-15.84-2.16-24.9,11.96-22.6,15.27-19.02,14.09-71.8-.9-40.5-.45-81.71-.61-122.37-17.68,0-52.66.26-52.66.26l22.28-26.04c70.46.98,154.45,1.03,226.71.68,39.07-.61,47.17,42.26,15.84,59.57-5.32,4.28-11.9,9.11-6.1,18.69,4.89,8.08,10.68,9.32,18.2,4.68,7.36-5.24,15.61-16.85,25.18-9.32,11.34,25.82-55.67,51.03-70.91,9.27-12.36-27.85,25.91-29.34,21.27-47.95-2.97-8.71-8.47-11.14-16.48-11.62-9.47.17-28.29-1.62-35.74.51-.67,70.93.27,163.14-.26,232.09,0,0,7.34,7.35,16.72,15.72-.77.49-1.54.99-2.31,1.48-19.24,0-40.03-.01-59.34-.01,8.65-8.76,16.09-18.21,16.09-18.21.66-72.82-.67-157.08.26-230.55-26.17.26-63.24-.4-89.36.77-.7,86.1-.85,174.63-1.24,260.99-.82.17.82-.17,0,0Z" style="fill: #603813;"/>
    <path d="M724.89,173.57c-44.97-.34-112.74,30.31-81.86,80.81,12.51,16.37,15.97,34.25,11.66,53.33-16.78,54.5-115.16,45.47-118.35-17.38-1.98-16.23,7.25-26.96,22.14-25.73,10.03.83,14.29,5.89,13.35,15.97-4.04,25.41,24.99,36.47,43.96,23.41,13.5-8.09,3.09-22.4-3.33-31.68-22.16-35.32-13.09-80.17,21.22-104.89,75.94-67.45,261.36-4.32,193.04,109.53-3.98,5.61-7.06,14.53-5.53,20.69,2.12,8.5,11.59,10.6,20.41,11.02,19.15.9,29.58-8.65,28.64-26.61-1.15-28.93,40.05-18.96,35.56,5.99-.65,62.53-99.46,77.71-118.54,19.14-15.05-43.59,45.58-66.3,6.65-105.28-17.52-16.83-47-26.11-69.02-28.31Z" style="fill: #603813;"/>
    <path d="M1413.09,187.55c6.89,15.06-.67,35.05-14.76,46.55-21.34,17.43-38.74,4.05-57.94-4.98-27.38,32.3-14.5,37.27-8.14,48.89-13.8-4.17-16.93-15.44-35.03-5.18-15.62,8.85-15.19,11.4-10.77,31.91-7.64-6.18-13.95-15.57-24.84-12.08-14.21,4.55-8.73,19.92-11.91,38.64-8.78-17.87-8.26-29.62-26.8-26.96-21.18,3.04-15.08,24.83-20.19,31.98-6.47-7.57-2.7-24.51-20.77-25.53-15.34-.87-17.42,12.22-25.87,23.15,1.02-21.11,12.06-25.99-12.83-29.96-23.94-5.1-30.82,13.69-33.3,16.69,1.7-34.04,1.53-27.57-13.11-35.23-19.37-10.13-17.95-3.46-36.77,8.68,4.7-21.8,9.53-25.19,4.26-33.19s-8.68-14.47-20.26-24c-15.29,11.32-44.44,34.62-59.06,45.45,48.02-60.93,112.48-131.39,196.19-138.87,69.66-6.06,123.38,20.03,177.59,59.1,36.18,26.07,50.18,8.59,37.96-21.42-2.52-6.19-15.48-25.5-12-28.77,2.5-2.35,23.4,24.35,28.34,35.15ZM1269.77,187.89c-16.07,34.9-28.16,65.88-69.77,61.9-35.18-3.37-51.26-29.22-58.23-64.54-40.73,11.6-62.83,25.19-91.91,48.73,98.69,66.61,201.2,52.58,280.96-11.86-20.55-11.45-38.92-25.27-61.05-34.22ZM1241.3,181.17c-23.72-3-52.64-5.27-73.45-1.28,5.74,59.7,66,55.66,73.45,1.28Z" style="fill: #603813;"/>
    <path d="M1861.23,368.04l-42.7-61.75c11.3-11.11,19.17-23.7,22.68-37.19l66.51-11.33-64.76-11.03c-2.4-23.9-18.34-45.51-43.13-61.94l11.33-38.87-28.01,29.27c-8.54-4.27-17.78-8.01-27.62-11.14l6.41-70.21-33.51,63.46c-10.99-2.04-22.48-3.38-34.32-3.93l-11.87-93.17-11.86,93.16c-11.64.52-22.93,1.8-33.76,3.77l-30.43-62.97,8.66,68.01c-10.44,2.97-20.29,6.61-29.38,10.84l-33.69-29.96,13.89,40.83c-25.98,16.8-42.6,39.21-44.64,64l-64.67,10.55,66.59,10.87c3.08,11.68,9.43,22.68,18.44,32.63l-38.26,69.43,68.52-45.47c8.22,4.79,17.26,9.06,26.96,12.71l-7.86,39.52,35.63-31.23c14.31,3.26,29.58,5.3,45.48,5.92l10.39,73.51,10.39-73.53c15.24-.61,29.91-2.54,43.71-5.6l38.53,29.75-10.07-38.09c7.84-2.91,15.25-6.23,22.16-9.9l74.26,39.09ZM1810.12,244.65h-114.09v-59.13c31.56,1.96,61.29,10.47,83.18,24.04,10.83,6.72,19.47,14.53,24.98,22.61,2.82,4.13,4.79,8.31,5.93,12.48ZM1584.92,209.56c21.84-13.54,51.49-22.05,82.98-24.03v59.11h-113.89c1.14-4.17,3.11-8.34,5.93-12.48,5.51-8.08,14.15-15.89,24.98-22.61ZM1559.93,273.92c-.26-.37-.48-.75-.72-1.13h108.68v47.76c-31.49-1.98-61.14-10.49-82.98-24.03-10.83-6.72-19.47-14.53-24.98-22.61ZM1696.04,320.57v-47.78h108.88c-.24.38-.46.75-.72,1.13-5.51,8.08-14.15,15.89-24.98,22.61-21.88,13.57-51.62,22.08-83.18,24.04Z" style="fill: #603813;"/>
    <path d="M338.24,761.56c22.02-11.85,50.24,20.76,48.46,42.07-1.46,34.23-54.4,85.75-88.87,82.63-39.96-3.61-62.67-39.49-41.66-73.25,13.38-21.5,29.1-41.57,42.98-62.78,3.18-6.1,25.14-39.25,20.16-42.68-16.6-.14-47.25,42.84-50.91,46.86-5.05,3.67-43.51,66.84-44.41,51.99,4.95-28.09,9.43-59.94,14.92-86.81.13-10.03,10.5-25.02-5.05-32.29-7.77-3.64-30.6,14.78-30.64,26.21-.17,48.38-.22,104.59-.09,152.97.03,12.23.35,26.27-16.25,25.68-14.48-.52-17.67-12.92-17.58-25.93-.45-75.4,2.09-156.4.55-231.02-9.33-3.47-38.82-1.89-52.09-1.7-11.76.7-24.74.57-22.94-12.6.96-7.02,6.19-17.64,14.43-19.06,16.31-2.8,40.24.45,59.23.45,3.03-18.39-6.18-50.71,19.34-52,22.97.37,13.05,34.69,15.14,51.84,23.74-3.72,44.82-6.57,67.64-2.67,17.28,5.6,22.88,30.53-4.77,29.96-14.36.47-55.07,1.74-62.64,2.72,0,0-.41,18.32,1.02,32.68,31.34-19.45,63.39-7.22,67.4,34.38,1.81-1.45,12.19-8.75,17.54-12.56,37.08-27.48,73.29,3.1,57.81,41.5-11.63,36.8-44.93,70.1-64.99,101.1-7.82,15.77,8.74,25.47,21.1,25.11,19.12-1.62,47.2-35.51,51.04-56.85.29-1.63-1.68-2.88-2.89-1.74-18.43,17.32-29.21,1.07-29.92-6.68-.71-7.64,9.93-23.7,16.9-27.53Z" style="fill: #603813;"/>
    <path d="M816.91,573.41c4.43-1.36.76-6.33-1.87-7.56-5.49-3.18-10.75-4.21-10.32-11.88.37-3.94,1.14-8.04,3.49-11.14,6.98-7.46,22.51-4.35,32.25-3.68,16.29,2.14,26.4,15.95,26.49,31.22,0,14.12-8.77,25.93-23.3,29.97-39.81,15.13-104.61,1.87-110.28,62.55.09,2.32,2.18,1.65,5.03.49,6.19-2.81,13.67-8.06,19.28-11.37,33.33-18.33,57.41-19.64,106.03-18.51,3.11.08,5.52.37,7.88,1.05,9.72,2.6,13.84,11.02,12.96,20.26-.1,24.56-42.5-5.04-94.52,16.36-164.9,65.3-49.85,208.87-143.93,224.72-21.23,3.98-39.17-11.43-44.13-31.63-3.17-15.14-26.11-74.83.57-79.84,10.95-1.28,18.51,7.64,19.46,17.9.37,4.32.46,9,.88,13.27,1.34,13.6,3.32,24.06,7.13,36.43,4.15,10.06,17.37,12.95,23.2,2.3,16.2-50.95,2.47-109.2,39.42-152.51,2-2.62,2.93-3.79,3.66-7.08,6.09-82.4,26.59-111.72,120.4-121.25l.2-.06Z" style="fill: #603813;"/>
    <path d="M1350.29,556.39c.32-2.54,4.06-2.71,4.88-.29,17.46,47.26-59.34,151.55-78.25,201.67,52.83,41.42,49.33,63.71-8.85,20.77-16.52,30-58.74,131.27-59.51,131.73-.23-.35-36.17-79.98-45.68-106.71-28.83,3.9-54.46-9.33-51.32-41.28,9.7,9.2,17.62,15.57,37.36,14.55-15.89-75.41-106.05-167.46-86.01-217.44,20.59,45.97,51.67,95.1,82.27,133.01,34.88,4.9,87.92,9.16,122.88,13.45,17.33-25.92,65.3-72.97,82.23-149.46ZM1181.93,771.48c18.07-9,42.59-12.55,62.31-16.77,4.77-1.02,9.18-14.73,12.94-22.53-34.34-3.95-68.85-8.46-101.11-12.17,7.52,14.64,17.1,34.42,25.86,51.48ZM1194.61,799.19c5.62,10.15,9.72,17.56,15.55,28.1,6.62-14.25,11.59-24.95,18.1-38.99-12.99,4.2-21.61,6.99-33.66,10.89Z" style="fill: #603813;"/>
    <path d="M1666.36,805.5c-14.99.24-51.1-3.95-66.06-5.88-1.5-.19-1.56-2.34-.07-2.61,14.91-2.72,50.63-6.43,63.97-7.55v-36.14c-42.74-6.78-75.85-26.04-84.01-70.06-2.77-14.97,1.74-33.28,5.11-48.64,4.07-18.59,12.51-36.1,17.21-54.61,5.51-21.67,2.89-30.48-26.79-21.42,2.49-10.09,23.04-12.89,27.83-10.79,7.07,3.11,13.28,10.72,12.85,19.91-1.05,22.59-3.28,37.91-8.64,65.62s-5.96,56.4,19.21,74.83c9.97,7.3,37.95,12.23,37.95,12.23,0,0,9.55-130.28,11.17-147.85.19-2.01,1.87-3.55,3.9-3.56h0c2.02,0,3.72,1.53,3.91,3.55l10.37,147.86c24.85,0,60.83-21.55,60.69-50.41-.12-22.53-5.7-45-8.34-67.55-1.36-11.62-3.31-23.49-2.05-35.03,1.96-18.08,22.13-31.49,38.56-9.4-24.21-10.72-30.98,2.94-25.37,24.36,4.52,17.26,11.01,33.94,16.54,50.91,19.25,59.07-34.4,113.24-78.57,120.64-.25,8.25,0,33.53,0,33.53,0,0,53.62,6.48,61.92,7.49,7.34.89,7.78,4.42.08,5.17-8.6.84-44.29,3.36-62.96,5.22l-2.13,37.95c16.76,1.54,56.19,6.85,65.57,8.2,1.3.19,2.26,1.29,2.28,2.6h0c.02,1.4-1.04,2.58-2.44,2.7-9.94.84-50.43,3.95-69.32,6.28-1.7,11.22-6.42,38.26-7.53,44.63-.14.8-.83,1.39-1.65,1.4h0c-.86,0-1.58-.63-1.69-1.48-.8-6.44-4.69-23.24-6.1-44.63-31.19-1.95-60.15-5.08-70.89-7.28-1.76-.36-1.8-2.85-.06-3.27,10.09-2.39,37.26-7.48,67.49-9.28l-1.95-37.69Z" style="fill: #603813;"/>
  </g>
  <g id="Layer_4">
    <g>
      <path d="M151.73,405.25l-.26,1.57-.72,1.05c-.44.31-1.5.69-3.19,1.15s-2.84.69-3.45.69c-2.51,0-4.69-.09-6.55-.26-.55,1.03-.85,2.02-.92,2.98l-1.44.72c-.28.48-.37,1.2-.26,2.16l.26.2-.46,1.9-1.18.98h-.72l.26.92-.65.98v1.44c-.68,1.88-1.28,3.08-1.8,3.6-.02.48-.23,1.08-.62,1.8-.46.85-.73,1.44-.82,1.77l.26,1.24s-.48,1.05-1.44,3.08l-.46.26c-.15.44-.42,1.07-.79,1.9l-.98.85c-.52,1.57-1.16,2.69-1.9,3.34l-.2,1.54c-.2.48-.72,1.09-1.57,1.83l-1.51.33-2.16,1.83c-1.46.44-2.93.88-4.39,1.34-1.73.48-3.22.77-4.49.88l-1.64-.46-.52-.72c-.7-.52-1.81-1.16-3.34-1.9-.24-.46-.93-1.46-2.06-3.01-.87-1.2-1.46-2.28-1.77-3.24v-.72l.46-.46.26-1.44.72-.98,1.9-1.18.49-.98,1.18-.2.98-.98,2.62-.26c.87.37,1.57.96,2.1,1.77v.92l-.92.92-1.64.46-.72-.46-.26-.92h-.72c-.17.24-.63.64-1.38,1.21s-1.22.86-1.44.88c-.11.87-.36,1.59-.75,2.16.2,1.83.99,3.53,2.39,5.08,1.16.9,2.12,1.38,2.88,1.44l.92.66h1.44c-.07,0,.74-.15,2.42-.46.76-.52,1.7-1.31,2.82-2.36v-.26c1.81-1.66,3-3.31,3.57-4.94.09-.46.26-1.11.52-1.96.35-.83,1.18-2.05,2.49-3.67.46-1.29.81-2.86,1.05-4.72l.98-.75.2-.98-.46-.2c.52-1.66,1.22-2.95,2.1-3.86v-2.1l.66-.52v-.72c.35-.41.68-.96.98-1.64l.85-.52c.41-1,.87-2.54,1.38-4.62l1.34-2.1c-1.09-.41-2.76-1.03-5.01-1.83-1.05-.28-2.62-.79-4.72-1.51l-.52-.46h-.92l-.98-.52c-2.23-.13-3.35-.2-3.37-.2-.92,0-2,.14-3.24.43-1.48.33-2.48.73-2.98,1.21l-1.9.52-.72.92-1.18.72-.26.98c.04.18.52.72,1.44,1.64l1.44.52,1.7-.26.46.26.26.46c.22-.04.45-.07.69-.07.46,0,1.19.14,2.19.43,1,.28,1.8.43,2.39.43.31,0,.6-.02.88-.07l1.28-.52v-.46c-1.22-.37-2.19-.92-2.91-1.64l-.46-.98v-1.18l.98-1.18c1-.24,2.11-.33,3.31-.26l.46.26v.46l.26.26-.26.2.52.26v.46l.92.72c.59.79,1.07,1.9,1.44,3.34l-.46,1.02c-1.57.52-2.93,1.07-4.06,1.64h-3.37c-.46-.48-1.6-.84-3.44-1.08-2.01-.26-3.24-.53-3.7-.82h-.72l-1.24-.49-.65-1.44h-.26l-1.21-.98-.26-2.03c.26-.81.51-1.4.75-1.77l.72-.26c.04-.09,1-.72,2.88-1.9.87-.07,1.96-.31,3.27-.72,1.64-.52,2.69-.83,3.14-.92h2.16c.07,0,.38.07.93.21s.89.22,1,.25c.28.04,1.31.07,3.08.07,1.7.81,4.15,1.64,7.34,2.49.87.11,2.37.55,4.49,1.31.5-.28,1.41-.94,2.72-1.96.85-.68,1.87-1.16,3.05-1.44,1.99-.48,3.45-.72,4.39-.72,2.93,0,5.23.46,6.91,1.38l1.44,1.57ZM148.32,405.65c-.87-.2-3.11-.46-6.71-.79-1.33.31-2.47,1.14-3.41,2.49.37.02,1.24.08,2.62.16,1.09.07,1.96.1,2.62.1,1.33,0,2.61-.33,3.83-.98l1.05-.98Z" style="fill: #42210b;"/>
      <path d="M151.92,434.61l-.11,1.36-.71.17c-.13-.08-.68-.11-1.65-.11-.34,0-.78-.13-1.31-.4-.38-.61-.68-1.04-.91-1.31l-.85-.34c-.53.4-.93.89-1.19,1.48l-.11.79-.62.4-.62,1.02.06.74-.23.74-.51.23.06.79-.62.65c-.08.59-.26,1.06-.57,1.42l-.62.23-.11.74.11.51-.23.85-.4.57-.17.79-.74.91c-.68.15-1.18.28-1.51.4-.4-.3-.97-.45-1.7-.45-.17,0-.51.08-1.01.26s-.85.24-1.04.2l-.28-.57.06-.68c.32-.25.78-.66,1.36-1.25-.1-.68-.02-1.23.23-1.65h.23l.11-.51.28-.11.17-.51h.23l.4-1.02c.23-.28.61-.65,1.14-1.11,0-.4.26-.93.79-1.59v-.68c.51-1.1.71-1.97.6-2.61l-.43-.79-.57-.17c-.23.04-.59.06-1.08.06l-.62.4-.62-.34-.62.11-.23-.17h-.79v-.45c.28-.4.7-.66,1.25-.79l.57.06c.38-.44.95-.74,1.7-.91h.8l.23-.17.88.11c.28,0,.76-.26,1.42-.79.55.21,1.02.44,1.42.68.34.49.55.89.62,1.19v.23l.45.96h.17c.3-.61.77-1.25,1.39-1.93.74-.78,1.39-1.23,1.96-1.36l.62.23.4.57c.49.21.87.51,1.13.91v.45l.74.74.79.23v.17l.43.45Z" style="fill: #42210b;"/>
      <path d="M173.57,431.49l-.23.4-.4.23v.23l-1.64.17-.23.45v.57l-.17.23v.62h-.23v.23l-.34.4-.11.51-.46.34.17.4c-.17.3-.41.98-.71,2.04l-.85,1.02h.23v.23c-.63.42-1.12.84-1.48,1.28l-.11.34.11.28-.23,1.87h-.17v.4l-.39.62.17.4.62.17c.49-.55,1.26-1.02,2.3-1.42l.34.62-.54,1.08c-.83.53-1.53,1.21-2.1,2.04-1.14.32-1.89.45-2.27.4v-.17h-.62c-.36-.44-.78-.79-1.25-1.08.04-.44-.02-1.04-.17-1.82l-.45-.45h-.17c-.87.74-1.36,1.29-1.48,1.65l-1.02.23-.4.62-1.19.45-.71-.23-.68.11c-.7-.43-1.31-.68-1.82-.74l-.79-.62c-.57-1.29-.85-2.21-.85-2.78,0-.3.08-.68.23-1.14h.17c.09-.26.23-.75.4-1.45l-.17-.45v-.23c0-.19.12-.46.35-.82.24-.36.36-.63.38-.82,1.14-.79,1.82-1.97,2.04-3.52.4-.26.71-.55.94-.85.68-.23,1.17-.42,1.48-.57h.23c.42-.49.89-.91,1.42-1.25l.23-.45,1.87-.62,1.65.23.62.4h.79l.85-.79h.79l1.08.4.82-.23.45.23.17.4,1.48-.17.62-.45.4.23.62-.23c.17.17.3.45.4.85ZM167.13,432.34l-1.25-.45c-.76.21-1.44.28-2.04.23l-1.48.62-.79.79c-.06.3-.39,1.21-1.01,2.72-.62,1.51-.98,2.31-1.09,2.38l-.11.62-.57.51-.11.4.11.4-.62.88v.74l-.34.34v.57l-.23.4v.23l-.6.23v.79l.17.23.88.4c.45-.15,1.14-.57,2.04-1.25h.23l.62-.4c.21-.3.55-.72,1.02-1.25v-.17l.4-.23c.42-.76,1.04-1.86,1.87-3.32v-.23l.62-.62c.06-.62.3-1.31.74-2.04-.04-.13.02-.49.17-1.08l.45-.17v-.23l-.11-.23c.11-.26.32-.66.62-1.19h.17l.23-.62Z" style="fill: #42210b;"/>
      <path d="M194.63,432.85l-.17.23v1.05l-.23.23-.45,1.05.17.4-.23.23c-.06.44-.2,1.04-.43,1.82l.11.28c-.38.51-.82,1.28-1.33,2.3-.53,1.12-.79,1.9-.79,2.36l-.43.62.11.82c.83-.61,1.46-1.2,1.87-1.79l.74-.31.88.23c-.08.4-.43.97-1.05,1.7-.72.85-1.18,1.49-1.39,1.9l-.4.26v.17l-1.39.88c-.62-.06-1.34-.41-2.16-1.05-.1-.17-.31-.39-.65-.65l-.28-.62v-.65l-.23-.4.17-.48-.06-.62c0-.79.4-1.92,1.21-3.36.8-1.45,1.18-2.73,1.12-3.85.38-.68.65-1.51.82-2.5l-.6-.23-.23.23v.17l-1.28.88v.23l-.82.17v.23c-.62.21-1.05.48-1.28.82v.45c-.25.17-.75.31-1.5.43v.4h-.4l-.2.23h-.23l-.23.4v.48l-.62.17v.4l-.31.65-.06.99c-.25.36-.47.94-.68,1.75-.21.8-.43,1.39-.65,1.75-.36.23-.73.63-1.11,1.22-.44.68-.77,1.13-.99,1.33-.68.15-1.72.38-3.12.68l-.71-.28-.99.28-1.08-.74-.48-1.11.23-.99.65-.23c.59.28,1.07.55,1.45.79l1.05-.17.71-.45.17-1.22.23-.17c-.02-.68.06-1.29.23-1.82.28-.53.69-1.34,1.22-2.44.19-.91.61-2.24,1.28-4l-.17-.65.17-.45-.4-.4-.65.23v.17l-.85.23-.6.4c-.85.13-1.57.29-2.16.48l-1.05-.48-.23-.62.23-.4c2.01.04,4.12-.6,6.36-1.93h.45l1.39-.99.71-.11.62.28c.83.85,1.18,1.55,1.05,2.1l-.4.23v.43l-.43.62c.04.15,0,.43-.11.82l.11.45.43.23c.72-.25,1.49-.67,2.33-1.28v-.23h.23l.57-.4h.26l.62-.48.23-.4.82-.17v-.23c.57-.3,1.07-.52,1.5-.65l.17-.23h.48c.57-.23.99-.5,1.28-.82h.62l.17.43h.26c.32.4.59.96.79,1.67v.65Z" style="fill: #42210b;"/>
      <path d="M215.75,433.81l-.17.57-.51.68-.99-.11-.51-.51-.28-.85.17-1.14-.62-.62c-.28-.19-.98-.28-2.1-.28-.19,0-.44.04-.74.11-.38.3-.68.51-.91.62l-.4.68c.15.53.23.98.23,1.36l.28.51c.76.47,1.49,1.21,2.21,2.21.78,1.12,1.15,2.06,1.14,2.84l-.34.82-.51.4-.11.62c-.47.34-.76.91-.85,1.7l-.68.4-.23.57c-.19.13-.45.36-.79.68l-.79-.11c-.57.19-1.19.62-1.87,1.31-.72.13-1.32.42-1.82.85-.83.08-1.48.11-1.93.11.21,0-.22-.1-1.28-.28-.74-.13-1.23-.25-1.48-.34-.36-.11-.83-.36-1.42-.74-.4-.59-.87-1.12-1.42-1.59-.15-.38-.23-.95-.23-1.7.19-.79.32-1.27.4-1.42l.45-.54.23-.91h.23l.11-.85.85-.62h.62c.08,0,.4.06.96.17.89.36,1.49,1.14,1.82,2.34l-.11.68.2.79-.2.79-.74,1.02h-.62l-.45-.84-.11-.84-.4-.5h-.57l-.57.34c-.21.7-.28,1.36-.23,1.99l.96.91c1.19.34,2.1.51,2.72.51.17,0,.42,0,.74-.03.32-.02.56-.03.71-.03.34-.13.74-.44,1.21-.94.46-.49.86-.8,1.18-.94.04-.11.19-.44.45-.96l-.06-.68.51-.45-.28-.62.17-.48-.4-.34-.85-.23c-.11-.17-.28-.44-.51-.82s-.4-.65-.51-.82h-.23l-.17-.17c-.27-.83-.51-1.53-.74-2.1,0-.4.06-.79.17-1.19.3-.36.64-.87,1.02-1.53l.06-.79.51-.4.17-.62h.23l.4-.4c.47-.09,1.17-.34,2.1-.74,1.14-.19,1.83-.28,2.1-.28.53,0,1.29.08,2.27.23.36.21.91.49,1.65.85.38.4.82.93,1.33,1.59l.17,1.14Z" style="fill: #42210b;"/>
      <path d="M245.18,442.07c-.4.72-.71,1.23-.94,1.53-.42.53-.87.91-1.36,1.14-.36.59-.78,1-1.25,1.25l-.4.62-1.25.23-1.25-.23-.4-.4v-.23l-.62-.62v-.23l-.23-.17-.4-.85v-.79c0-.19.04-.4.11-.62l.45-.4c0-.06,0-.13-.03-.23-.02-.09-.03-.17-.03-.23,0-.59.11-1.22.34-1.9h-.23v-.4c0-.11.04-.29.11-.52.08-.24.11-.42.11-.55.3-.66.85-1.61,1.65-2.84v-1.02l.17-.45h-.62c-.49.38-1.31.93-2.44,1.65h-.62l-.85.45v.17c-.51.15-.93.36-1.25.62v.23h-.17v.23l-.23.17v.23l-1.05,1.42c.04.34-.11.76-.45,1.25.04.13-.04.56-.23,1.28l-.34.4v.23l.28.74-.11.51-.4.4c-.27.4-.4,1.31-.4,2.72l-.85.4h-.62l-.4-.23-.23-.4-.62-.23-.4-.62v-.17l-.23-.23c.13-.51.17-.98.11-1.42l.23-.45v-.17c.4-.4.64-.76.74-1.08v-.4l.57-1.02c-.11-1.34.09-2.39.62-3.15v-.62l.23-.17c-.17-.89-.25-1.38-.23-1.48-.91.23-1.59.57-2.04,1.02h-.4l-.85,1.08h-.23v.17l-.4.45-.62.17-.4.4v.45h-.23v.4l-.4.23-.23.4-.79.23-.4.43v.23l-.23.4v.23l-.4.4c.08.85,0,1.53-.23,2.04l-.23-.17v.17l-.4.62-.65.4-.23.45v.17h-.4v.23l-.23.23c-.38.02-.94.1-1.67.23-.66.11-1.26.17-1.79.17-.36-.09-.57-.17-.62-.23-.45-.45-.74-.87-.85-1.25l.23-.4h.4l.23-.17.79-.23.34.45.51-.06.79-.62.45-1.02v-.85l.4-.4.4-1.28.23-.17c.08-1.06.28-1.82.62-2.27h.4c.23-.66.31-1.29.26-1.87-.23-.3-.39-.79-.48-1.48.19-.55.27-.89.23-1.02h-.23l-.62.28-1.02-.06-.74.51c-.13.02-.4.07-.81.16-.41.09-.71.13-.89.13-.09,0-.24,0-.43-.03-.19-.02-.33-.03-.43-.03l-.34-1.02.57-.57c.3-.02,1.02-.11,2.15-.28.89-.11,1.6-.17,2.15-.17l.68-.34.59.17.62-.51.91-.23.74-.51c.75-.13,1.17-.19,1.25-.17l.74.28.11.51-.23.62-.23.23c.04.32.16.77.37,1.33.21.57.33,1.01.37,1.33l.74.11c.57-.34,1.46-.79,2.68-1.36l.4-.62c1.06-.49,1.99-.81,2.79-.96l.77-.68,1.25.23.46.4v.4h.17c-.04.23.04.59.23,1.08l.4.17.4-.17.45.17c.28-.09.62-.3,1.02-.62v-.17c.25-.06.69-.27,1.33-.64.64-.37,1.03-.65,1.16-.84.42.04,1.44-.08,3.07-.34l.45.17.62.62.17.4v1.65c-.13.1-.4.64-.79,1.65-.81.27-1.31.89-1.48,1.87l-.23.23v.4l-.17.17v1.08l.17.4c-.02.32-.32,1.31-.91,2.98l.23.79.68-.23c.47-.36,1.17-.91,2.1-1.65v-.23h.23c.57.15.84.23.82.23Z" style="fill: #42210b;"/>
      <path d="M271.23,441.85c-.21.28-.63.6-1.26.94-.63.34-.99.58-1.06.71v.23c-.25.19-.59.45-1.02.79l-.4.85-1.02.79-.23.45c-.66.45-1.73.62-3.21.51-.87-.25-1.65-.57-2.33-.96l-.23-.91c.06-.83.3-1.8.74-2.9-1.04.28-1.81.74-2.3,1.36-.83,1.02-1.3,1.57-1.39,1.65l.11.17c-.04.08-.1.18-.17.31-.08.13-.13.24-.17.31h-.79c-.57.49-1.27.78-2.1.85-1.72-.06-3.3-.74-4.74-2.04-.17-.74-.42-1.7-.74-2.9,0-1.31.3-2.43.91-3.38v-.17c1.15-1.49,1.65-2.74,1.48-3.75l-.45-.23-.17.23h-.45l-.4.4-.62.23-1.02-.23.28-1.48.74-.57c.6-.15,1.3-.23,2.09-.23l.62-.4h.42l.23-.4.79-.23.4-1.02.23-.23.85.4,1.02-.4,1.25.4c.08.42.13,1.04.17,1.87l-.17.4-1,.23c-.13.17-.28.51-.45,1.02h-.17c-.19,1.1-.47,1.8-.85,2.1v.17c-.19.17-.47.53-.85,1.08l-.17,1.65-.23.17c-.34.55-.47,1.18-.4,1.9l.17.23c-.08.28.1.84.52,1.66.43.82.78,1.37,1.06,1.63h.74c.11-.08.95-.89,2.5-2.44l.62-.23.11-.4c.3-.08.53-.23.68-.45l.4-.17v-.23c.15-.3.36-.65.62-1.05.42-.15.84-.41,1.28-.77.64-.53,1.01-.82,1.11-.88.09-.4.23-.68.4-.85h.23c.25-.83.71-2.02,1.39-3.58.19-.28.45-.74.79-1.36-.06-.4.02-.81.23-1.25l1.65-.74,1.42.51c.23.42.3.91.23,1.48l-.22.4v.62h-.17l-.63,1.25h-.23c-.27.19-.47.79-.63,1.82h-.17c-.13.51-.34,1.08-.63,1.7v1.02l-.63,1.45-.23.23-.63,1.65v.62c0,.1,0,.25.03.45.02.21.03.36.03.45.72-.45,1.19-.83,1.42-1.14l1.25-.17.17-.23v-.4c.38-.36.93-.91,1.65-1.65.53-.21.89-.29,1.08-.26l.62.88v.4Z" style="fill: #42210b;"/>
      <path d="M289.76,430.07l-.17,1.02-.62.17c-.19-.04-.67-.15-1.45-.34-.57-.15-1.05-.23-1.45-.23-.04,0-.4.06-1.08.17l-.17.23h-1.19l-.62.57c-.1.49-.32,1.06-.68,1.7.06.55-.02,1.17-.23,1.87l-.4.4.23,1.08-.4.17-.23.4.23.45-.45.51-.17.85-.23.06-.4.85v.17l-.85.45.23.65-.45.4-.17.62-.65.85v.4l.17.17h.48v.45l-.23.17c.15.36.26.79.34,1.31l1.14-.23.45.28.34-.28.45.17c.4-.15,1-.36,1.82-.62l.62-.62.45-1.19v-1.08c.32-.81.66-1.41,1.02-1.79l-.45-.28.45-.4v-.23l.62-.4h.62c.44.11.64.17.62.17l.57,1.25-.4.65v.62c-.45.62-.93,1.04-1.42,1.25v.23l-.62.79c-.08.64-.32,1.17-.74,1.59l-.68.45-.45.62c-.83.45-1.51.66-2.04.62l-.23.45h-.4l-.23-.23c-.4.09-.68.23-.85.4l-1.02.23v-.23c-.89-.15-1.58-.21-2.07-.17-.15-.25-.48-.52-.99-.82-.57-.34-.94-.61-1.11-.82v-1.08l-.17-.17v-.85c.44-1.15.64-1.91.62-2.27l.34-.34c.23-.4.3-.92.23-1.56l.74-.96c-.02-.17.11-.89.4-2.16l.51-.57-.23-.45c.21-.74.51-1.83.91-3.29h.4c.17-.23.31-.72.43-1.48l-.26-.23-1.02.23c-.4.32-.74.53-1.02.62l-.62-.17c-.78.38-1.53.51-2.27.4l.23-.85c.47-.38,1.02-.72,1.65-1.02h.4l.23-.4h.62l.79-.4.51.11c.74-.13,1.39-.31,1.96-.54l.28-.85h.4l.85-1.02.17-.62c.38-.23.66-.38.85-.45l.17-.62.62.23.23-.23v-.4l.85-.4v-.4l.4-.62h.4l.23.17.4-.17v1.42l-.4.23v.17l-.23.23v.62l-.85,1.02c-.06.72-.3,1.37-.74,1.96.74.06,1.48.17,2.21.34.34-.11.87-.17,1.59-.17.78,0,1.42.06,1.93.17l.4.85Z" style="fill: #42210b;"/>
      <path d="M310.88,431.49l-.23.4-.4.23v.23l-1.64.17-.23.45v.57l-.17.23v.62h-.23v.23l-.34.4-.11.51-.46.34.17.4c-.17.3-.41.98-.71,2.04l-.85,1.02h.23v.23c-.63.42-1.12.84-1.48,1.28l-.11.34.11.28-.23,1.87h-.17v.4l-.39.62.17.4.62.17c.49-.55,1.26-1.02,2.3-1.42l.34.62-.54,1.08c-.83.53-1.53,1.21-2.1,2.04-1.14.32-1.89.45-2.27.4v-.17h-.62c-.36-.44-.78-.79-1.25-1.08.04-.44-.02-1.04-.17-1.82l-.45-.45h-.17c-.87.74-1.36,1.29-1.48,1.65l-1.02.23-.4.62-1.19.45-.71-.23-.68.11c-.7-.43-1.31-.68-1.82-.74l-.79-.62c-.57-1.29-.85-2.21-.85-2.78,0-.3.08-.68.23-1.14h.17c.09-.26.23-.75.4-1.45l-.17-.45v-.23c0-.19.12-.46.35-.82.24-.36.36-.63.38-.82,1.14-.79,1.82-1.97,2.04-3.52.4-.26.71-.55.94-.85.68-.23,1.17-.42,1.48-.57h.23c.42-.49.89-.91,1.42-1.25l.23-.45,1.87-.62,1.65.23.62.4h.79l.85-.79h.79l1.08.4.82-.23.45.23.17.4,1.48-.17.62-.45.4.23.62-.23c.17.17.3.45.4.85ZM304.44,432.34l-1.25-.45c-.76.21-1.44.28-2.04.23l-1.48.62-.79.79c-.06.3-.39,1.21-1.01,2.72-.62,1.51-.98,2.31-1.09,2.38l-.11.62-.57.51-.11.4.11.4-.62.88v.74l-.34.34v.57l-.23.4v.23l-.6.23v.79l.17.23.88.4c.45-.15,1.14-.57,2.04-1.25h.23l.62-.4c.21-.3.55-.72,1.02-1.25v-.17l.4-.23c.42-.76,1.04-1.86,1.87-3.32v-.23l.62-.62c.06-.62.3-1.31.74-2.04-.04-.13.02-.49.17-1.08l.45-.17v-.23l-.11-.23c.11-.26.32-.66.62-1.19h.17l.23-.62Z" style="fill: #42210b;"/>
      <path d="M326.86,430.07l-.17,1.02-.62.17c-.19-.04-.67-.15-1.45-.34-.57-.15-1.05-.23-1.45-.23-.04,0-.4.06-1.08.17l-.17.23h-1.19l-.62.57c-.1.49-.32,1.06-.68,1.7.06.55-.02,1.17-.23,1.87l-.4.4.23,1.08-.4.17-.23.4.23.45-.45.51-.17.85-.23.06-.4.85v.17l-.85.45.23.65-.45.4-.17.62-.65.85v.4l.17.17h.48v.45l-.23.17c.15.36.26.79.34,1.31l1.14-.23.45.28.34-.28.45.17c.4-.15,1-.36,1.82-.62l.62-.62.45-1.19v-1.08c.32-.81.66-1.41,1.02-1.79l-.45-.28.45-.4v-.23l.62-.4h.62c.44.11.64.17.62.17l.57,1.25-.4.65v.62c-.45.62-.93,1.04-1.42,1.25v.23l-.62.79c-.08.64-.32,1.17-.74,1.59l-.68.45-.45.62c-.83.45-1.51.66-2.04.62l-.23.45h-.4l-.23-.23c-.4.09-.68.23-.85.4l-1.02.23v-.23c-.89-.15-1.58-.21-2.07-.17-.15-.25-.48-.52-.99-.82-.57-.34-.94-.61-1.11-.82v-1.08l-.17-.17v-.85c.44-1.15.64-1.91.62-2.27l.34-.34c.23-.4.3-.92.23-1.56l.74-.96c-.02-.17.11-.89.4-2.16l.51-.57-.23-.45c.21-.74.51-1.83.91-3.29h.4c.17-.23.31-.72.43-1.48l-.26-.23-1.02.23c-.4.32-.74.53-1.02.62l-.62-.17c-.78.38-1.53.51-2.27.4l.23-.85c.47-.38,1.02-.72,1.65-1.02h.4l.23-.4h.62l.79-.4.51.11c.74-.13,1.39-.31,1.96-.54l.28-.85h.4l.85-1.02.17-.62c.38-.23.66-.38.85-.45l.17-.62.62.23.23-.23v-.4l.85-.4v-.4l.4-.62h.4l.23.17.4-.17v1.42l-.4.23v.17l-.23.23v.62l-.85,1.02c-.06.72-.3,1.37-.74,1.96.74.06,1.48.17,2.21.34.34-.11.87-.17,1.59-.17.78,0,1.42.06,1.93.17l.4.85Z" style="fill: #42210b;"/>
      <path d="M338.18,442.36c.04.32-.09.79-.4,1.42l-.4.23-.23.4h-.23l-.4.45-.85.17c-.06.13-.18.32-.37.57s-.31.44-.37.57l-.68.51-.85.23-.17.23-.85.17-.23.23-1.05-.4c-.85.08-1.68-.08-2.5-.45v-.17c-.15-.23-.28-.38-.4-.45l-.4-.17c-.34-.61-.51-1.21-.51-1.82l.28-.68c.3-.21.81-.98,1.53-2.33.47-.87.95-1.75,1.42-2.64.04-.45.36-1.49.97-3.12v-.4l.23-.23v-.23h.26l.45-.91-.06-.91-.23-.23c-.55.06-1.03.27-1.45.62v.23c-.76.23-1.31.42-1.65.57l-.45.45c-.38.06-.78.19-1.19.4l-.45-.06-.4-.34-.11-.45.11-.57c.66-.53,1.21-.83,1.65-.91.61-.11,1.21-.23,1.82-.34.25-.11.61-.28,1.08-.51,1.12-.49,2.51-.74,4.17-.74.04,0,.18.03.43.09.25.06.39.08.43.08.34.34.61.76.79,1.25h.23c.15.25.23.76.23,1.53,0,.08-.06.4-.17.96-.13.1-.44.44-.91,1.02l-.63.23-.17.62h-.23l-.4.4c.06.55-.02,1.17-.23,1.87h-.17c-.08.47-.23.89-.45,1.25l-.62.57c-.45,1.46-.66,2.24-.62,2.36h-.17c-.04.34-.13.83-.28,1.48l.06.68c.57-.04,1.35-.35,2.34-.92.99-.58,1.59-1.12,1.8-1.63l.68-.4.51-.06.45.23ZM340.96,420.62l-.4.34c-.11.83-.4,1.4-.85,1.7v.57l-.45.51-.23.79-.74.17c-.08.59-.27,1.06-.57,1.42-.42.25-.79.57-1.14.96l-.74.23-.51-1.19c.04-.42.06-1.04.06-1.87.51-.83.64-1.7.4-2.61.26-.66.6-1.23,1.02-1.7l1.02-.4.23-.23c.3-.15.62-.23.96-.23h.91c.42.19.76.47,1.02.85v.68Z" style="fill: #42210b;"/>
      <path d="M357.76,437.56l-.26,1.53h-.17v.4l-.4.45v.17l-.62.45-.62,1.05-.62.4.23.34c-.23.45-.45.79-.68,1.02l-.11.57c-.32.19-.74.61-1.25,1.25-.57.68-1,1.14-1.31,1.36-.45-.06-.93.02-1.42.23-.49-.15-1.25-.23-2.27-.23-.53.11-.87.21-1.02.28l-1.08-.28c-.66-.59-1.24-.95-1.73-1.08-.3-.26-.7-.72-1.19-1.36-.08-.3-.15-.83-.23-1.59-.3-.36-.64-.95-1.02-1.76-.76-.62-1.14-1.66-1.14-3.09l.57-1.48c.38-.38.91-.74,1.59-1.08.19-.26.34-.53.46-.79l1.02-.62,1.02-1.42,1.05-.4h.63l.85-.85,1.02-.23.4.23c.17.23.32.72.46,1.48h.4l.23-.23,1.02-.4.4-.45h1.02l.85.45.4,1.42,1.02.4h.23c.23.34.57.62,1.03.85.38.62.81,1.63,1.28,3.01ZM356.06,437.05l-.39-1.08v-.17l-.45-.4-.17-.45-.84-.4-.62.4c-.13.4-.34.74-.62,1.02.04.13-.02.42-.17.85l-.45.23v.17l-.62.45-1.02-.62-.17-.23v-1.65l-.45-1.02v-.23l-.4-.23v-.17l-.4-.23-.85.23-.28.51-.96.51h-.17c-.09.34-.45.76-1.08,1.25v.4l.23.23v.4l.11.28-.51,1.19v.79c.11.11.25.32.4.62,0,.08,0,.18-.03.31-.02.13-.03.24-.03.31,0,.06,0,.16.03.3.02.14.03.24.03.3.17.27.3.7.4,1.31l.85.62.4.79,1.02.85,1.47.23c.42-.28,1.06-.62,1.92-1.02l-.06-.45c.34-.25.83-.6,1.47-1.08l.17-.57c.36-.3.7-.73,1.02-1.28l.85-.4c.34-.83.47-1.8.4-2.9Z" style="fill: #42210b;"/>
      <path d="M381.09,432.85l-.17.23v1.05l-.23.23-.45,1.05.17.4-.23.23c-.06.44-.2,1.04-.43,1.82l.11.28c-.38.51-.82,1.28-1.33,2.3-.53,1.12-.79,1.9-.79,2.36l-.43.62.11.82c.83-.61,1.46-1.2,1.87-1.79l.74-.31.88.23c-.08.4-.43.97-1.05,1.7-.72.85-1.18,1.49-1.39,1.9l-.4.26v.17l-1.39.88c-.62-.06-1.34-.41-2.16-1.05-.1-.17-.31-.39-.65-.65l-.28-.62v-.65l-.23-.4.17-.48-.06-.62c0-.79.4-1.92,1.21-3.36.8-1.45,1.18-2.73,1.12-3.85.38-.68.65-1.51.82-2.5l-.6-.23-.23.23v.17l-1.28.88v.23l-.82.17v.23c-.62.21-1.05.48-1.28.82v.45c-.25.17-.75.31-1.5.43v.4h-.4l-.2.23h-.23l-.23.4v.48l-.62.17v.4l-.31.65-.06.99c-.25.36-.47.94-.68,1.75-.21.8-.43,1.39-.65,1.75-.36.23-.73.63-1.11,1.22-.44.68-.77,1.13-.99,1.33-.68.15-1.72.38-3.12.68l-.71-.28-.99.28-1.08-.74-.48-1.11.23-.99.65-.23c.59.28,1.07.55,1.45.79l1.05-.17.71-.45.17-1.22.23-.17c-.02-.68.06-1.29.23-1.82.28-.53.69-1.34,1.22-2.44.19-.91.61-2.24,1.28-4l-.17-.65.17-.45-.4-.4-.65.23v.17l-.85.23-.6.4c-.85.13-1.57.29-2.16.48l-1.05-.48-.23-.62.23-.4c2.01.04,4.12-.6,6.36-1.93h.45l1.39-.99.71-.11.62.28c.83.85,1.18,1.55,1.05,2.1l-.4.23v.43l-.43.62c.04.15,0,.43-.11.82l.11.45.43.23c.72-.25,1.49-.67,2.33-1.28v-.23h.23l.57-.4h.26l.62-.48.23-.4.82-.17v-.23c.57-.3,1.07-.52,1.5-.65l.17-.23h.48c.57-.23.99-.5,1.28-.82h.62l.17.43h.26c.32.4.59.96.79,1.67v.65Z" style="fill: #42210b;"/>
    </g>
    <g>
      <path d="M676.29,387.88l-.84,3.92-.84.3-.84,1.07-1.37.53-.61.84c-.91.25-1.73.74-2.44,1.45l-1.49.23-1.07-.23c-.46.15-1.75.23-3.88.23-.41,0-1.17-.24-2.29-.72-1.12-.48-1.93-.72-2.44-.72-.2,0-.38.03-.53.08l-2.29,1.68-.23.53-.61.53v.61l-.76.84-.65.23v.3l-1.37,1.37-.3.84-.53.53-.3.84c-.41.38-.86.94-1.37,1.68h-.23l-.61,2.02-.84.84-.53,2.74c-.61,1.02-1.62,2.49-3.05,4.42-.1.86-.38,1.52-.84,1.98v1.37c-.33.71-.71,1.93-1.14,3.66-.58.58-1.16,1.64-1.71,3.18-.56,1.54-1.18,2.6-1.87,3.18l-.84,1.98.3.3-.65.53v.84l-.53.53c-.74,3.43-1.1,5.59-1.1,6.47,0,.28.01.55.04.8l-.61,1.37.61,2.21c.28.58.63,1.32,1.07,2.21l.53.3c.46.66.95,1.22,1.49,1.68v1.07l-1.14,1.45-1.41.23-2.51-1.07h-1.07c-.3-.3-.75-1.07-1.33-2.29-.58-1.22-1.18-2.13-1.79-2.74h-.23l-.61-.53-.3-.84c-.03-1.19.08-2.96.3-5.29-.15-.3-.23-1.14-.23-2.51,0-.25.1-.7.3-1.33.2-.63.28-1.13.23-1.49-.36-.61-.71-1.07-1.07-1.37-.46-2.29-.69-3.94-.69-4.95,0-.56.08-1.54.23-2.93.13-1.27.18-2.26.15-2.97l.3-.3c-.38-.38-.86-.74-1.45-1.07-.1-.99-.28-1.73-.53-2.21h-.3c-.56.71-1.02,1.73-1.37,3.05l-.53.53v1.98l-1.14,3.08-1.41,1.6h-.3l-.23,1.45-1.68,1.37c-.13.61-.5,1.43-1.1,2.48-.81,1.32-1.28,2.12-1.41,2.4l-1.52.91c-.53,1.65-1.6,3.06-3.2,4.23v.3l-1.37,1.37v.53l-.84,1.14-2.51,1.68-.53,1.9c-.94.28-1.61.66-2.02,1.14h-1.37l-1.07.53-.3.53h-1.37l-2.51,1.14c-.69-.05-1.6-.38-2.74-.99s-1.9-1.19-2.29-1.75l-.53-1.45-1.14-.84-2.25-4.42.3-1.71c.84-1.14,2.04-2.89,3.62-5.26v-.53l.84-.84c.99-.38,1.73-.76,2.21-1.14,1.07-.15,1.62-.23,1.68-.23s.24.04.57.11c.33.08.52.11.57.11,1.24.97,1.98,1.9,2.21,2.82v1.07c0,.3-.1.76-.3,1.37h-.23l-.3,1.68-1.68.84-.53-.23-.3-.3h-.23l-.84-1.37-2.21-.61-.61-.84h-.53c-.08.43-.37,1.27-.88,2.51-.43,1.07-.65,1.92-.65,2.55,0,.25.05.63.15,1.14l.84.53c.38.81,1.02,2.01,1.9,3.58l2.21,1.68c1.8-.46,3.48-1.29,5.03-2.51h.84c.41-.51.96-1.32,1.68-2.44l.84-.61,1.41-2.51,1.52-.88c.71-1.4,2.23-3.33,4.57-5.79.56-.43,1.4-1.17,2.51-2.21.38-.53,1.02-1.27,1.9-2.21.58-1.78,1.14-3,1.68-3.66h.3l.3-.84,1.07-.53c.38-3.2,1.33-5.98,2.86-8.34-.1-1.37.25-2.59,1.07-3.66v-.53l1.37-3.35-.23-2.48-.3-.3-2.44.84c-2.08-.05-4.53-.57-7.35-1.56-3.38-1.19-5.69-1.89-6.93-2.09l-.53-.53h-3.08c-1.5.86-3.43,1.24-5.79,1.14-.74.18-1.85,1.02-3.35,2.51l-1.37.53-1.98,3.08c-.13,1.04-.41,1.78-.84,2.21l.3.53,1.07-1.07,1.45-.53c.89.56,1.98,1.09,3.28,1.6l.84,1.45v1.07h-.53l.3,3.35c1.6.46,3.17,1.09,4.72,1.9l.76-.23.84-.84v-.3l.84-.53-.84-1.98v-.84c.41-.1,1.18-.48,2.32-1.14.91-.51,1.73-.76,2.44-.76v-.3l1.14.3c.33.61.79,1.24,1.37,1.9v.84c-1.12.99-1.75,2.01-1.9,3.05-1.78.56-3.07,1.32-3.88,2.29l-1.49.23-1.07-.23-1.14.23-1.9-.84h-1.37l-1.14-.84c-1.6-.02-3.25-.96-4.95-2.82-2.03-2.18-3.34-3.4-3.92-3.66l-.61-1.52.3-1.14,1.1-1.07.61-3.16,2.21-1.6h.23l.61-1.14c.51-.33,1.24-.71,2.21-1.14l.23-.53,1.68-.84h.84l1.37-.53c.61.03,2.54-.08,5.79-.3,3.25-.23,5.14-.41,5.67-.53.61.89,1.93,1.73,3.96,2.51,1.93.74,3.6,1.1,5.03,1.1.25,0,.48-.01.69-.04l.88-.53h1.68l2.82-1.07.84-1.14,1.07.3,1.14-.84h2.21l.3.84h.23l-.53,3.28.3,1.45,1.6.53c.36.66.46,1.59.3,2.78l-1.37,1.14-.3,1.68.61,2.21.76.53v.84l.3.3v1.9h.3c-.2.61-.3,1.07-.3,1.37,0-.81.18,2.07.54,8.65l.31.3-.31.53.31,1.14,1.37-1.37.84-1.98.88-.84.53-2.25h.3c.41-.81.69-1.45.84-1.9h.3v-1.45l.84-1.37v-1.07l1.07-2.51.53-.3c.71-1.98,1.37-3.28,1.98-3.88l.53-1.9.61-.61c.2-.96,1.03-2.35,2.49-4.17,1.46-1.81,2.28-3.1,2.46-3.87l1.37-.84.3-1.45.3-.23.53-1.14,1.18-1.07v-.3l-1.49-1.37h-3.58c-.15,0-.46.05-.91.15-1.4.13-3.51.36-6.33.69.2.33.3,1.07.3,2.21l-.84,2.74-.53.61-1.68-.3-.61-1.98-.53-.53-2.55-.53-1.37-1.37v-.84l.3-.61h.53l.84-.53c1.22-.15,1.85-.23,1.9-.23.08,0,1.94.08,5.6.23l.61-.53c3.23-1.17,6.57-1.64,10.02-1.41l.84.57.23.84c.66.3,1.42.41,2.29.3.86-1.12,1.88-1.97,3.05-2.55l.53-1.14c.91-.61,2.31-1.45,4.19-2.51.66-.1,1.57-.46,2.74-1.07,1.88-.08,3.84-.46,5.9-1.14,1.37,1.02,2.28,1.96,2.74,2.82l.3,1.37ZM669.9,389.26l-1.41-.84.23-.84c-1.73,0-3.58.66-5.56,1.98l-.53.84-1.07.23-1.68,2.02,1.07.84h1.45l.76.53c2.92-.33,4.32-.51,4.19-.53l1.14-.61c.41-.74.88-1.94,1.41-3.62Z" style="fill: #42210b;"/>
      <path d="M665.77,433.77l-.25.25-.06.68.25.62-.25.75.12.93c-.52,1.12-1.04,1.87-1.56,2.24-.04,0-.2.03-.47.09-.27.06-.43.09-.47.09s-.5-.06-1.37-.19l-.44-.25c-.5.06-1.61-.07-3.34-.39-1.73-.32-2.9-.61-3.5-.86l-.78.37c-.06.1-.26.65-.61,1.65s-.51,1.54-.51,1.62c0,.19.01.46.03.81.02.35.03.62.03.81l.93,1.93c.58.21.92.31,1.03.31.06,0,.12-.01.19-.03.06-.02.12-.03.19-.03l1.87.19c.48-.12,1.02-.37,1.62-.75.75-.48,1.24-.77,1.49-.87l.44-.06c.48-.35.85-.79,1.12-1.31l1.31-.37.25.68c-.1.52-1.18,1.8-3.24,3.86-.68.33-1.65.55-2.89.65-1.37.1-2.33.26-2.89.47l-1.4-.25-.19-.19-1.12-.25c-1.06-.71-2.05-1.91-2.99-3.61-.04-.5-.15-1.1-.31-1.8.1-.37.25-1.15.44-2.33l.25-.25-.12-.19.44-.44.25-.93c.35-.23.64-.68.87-1.37v-2.05l.5-.19.44-1.62c1.51-1.76,3.12-2.9,4.82-3.42.1,0,.26.01.47.03.21.02.36.03.47.03.6-.17.89-.25.87-.25l.75.31c.25-.04.6-.15,1.06-.31.31.02.77.13,1.37.34.6.21,1.06.32,1.37.34l.62.68.62.25.31.44.87.37.5.56c.1.23.21.59.31,1.09.1.5.21.86.31,1.09ZM662.22,434.51l-.25-.25c0-.75-.02-1.31-.06-1.68-.25-.5-1.04-1.26-2.36-2.3-.79,0-1.8.25-3.05.75l-.31.5-.56.37-.25.56-.19.19v.5l-.37.31c-.12.25-.23.66-.31,1.24h-.25l-.06.56.19.75c1.29.66,3.59,1.08,6.91,1.24.17-.64.39-1.04.68-1.18l.25-1.56Z" style="fill: #42210b;"/>
      <path d="M687.98,430.9l-.06.62c-.29.58-.62,1.06-1,1.43l-2.21.19c-1.08-.58-1.87-1.04-2.36-1.37-.58.08-1.06.12-1.43.12-.12,0-.31-.03-.56-.09-.25-.06-.44-.09-.56-.09-.04,0-.56.06-1.56.19l-1.18.75c-.06.27-.19.5-.37.68-.25.68-.71,1.7-1.37,3.05v.62l-.68.44.06.5-.31.56-.5.25v.25l-.68.87c-.19.79-.26,1.34-.22,1.65h.47c-.23.89-.31,1.72-.25,2.49l.25.44c.15.1.68.33,1.62.68.7-.04,1.67-.29,2.89-.75,1.31-.48,2.17-.95,2.58-1.43l.25-.81.44-.56,1-.56.87.12.31.62.5.44v.68c-.85.6-1.45,1.12-1.8,1.56-.71.29-1.47.66-2.3,1.12-.52.08-.98.25-1.37.5h-.19l-.25.44v.12h-.62l-.75.56h-1.12c-1.1,0-2.08-.15-2.96-.44v-.5l-.93-.68c-.1-.41-.25-.71-.44-.87-.39-.35-1-.62-1.8-.81-.19-.58-.5-1.12-.93-1.62-.17-.58-.25-1.44-.25-2.58,0-.56.19-1.26.58-2.1.38-.84.79-1.43,1.23-1.76l-.12-.25.12-.44h.25l.44-.93v-.19l.5-.68.75-.31c.12-.46.37-.87.75-1.24l.9-.5.37-.93.87-.25.31-.5h.81l1.18-.62c.7-.04,1.74-.19,3.11-.44l1.87.44.44.68c.93.17,1.64.44,2.12.81.23,0,.57-.01,1.03-.03.46-.02.81-.03,1.06-.03.39,0,.81.17,1.24.5Z" style="fill: #42210b;"/>
      <path d="M706.58,433.45l-.12,1.49-.78.19c-.15-.08-.75-.12-1.81-.12-.37,0-.85-.15-1.43-.44-.42-.66-.75-1.14-1-1.43l-.93-.37c-.58.44-1.02.97-1.31,1.62l-.12.87-.68.44-.68,1.12.06.81-.25.81-.56.25.06.87-.68.72c-.08.64-.29,1.16-.62,1.56l-.68.25-.12.81.12.56-.25.93-.43.62-.19.87-.81,1c-.75.17-1.3.31-1.65.44-.44-.33-1.06-.5-1.87-.5-.19,0-.56.09-1.11.28-.55.19-.93.26-1.14.22l-.31-.62.06-.75c.35-.27.85-.73,1.49-1.37-.1-.75-.02-1.35.25-1.8h.25l.12-.56.31-.12.19-.56h.25l.44-1.12c.25-.31.66-.72,1.24-1.21,0-.44.29-1.02.87-1.74v-.75c.56-1.2.78-2.16.65-2.86l-.47-.87-.62-.19c-.25.04-.64.06-1.18.06l-.68.44-.68-.37-.68.12-.25-.19h-.87v-.5c.31-.44.77-.73,1.37-.87l.62.06c.42-.48,1.04-.81,1.87-1h.87l.25-.19.97.12c.31,0,.83-.29,1.56-.87.6.23,1.12.48,1.56.75.37.54.6.98.69,1.31v.25l.5,1.06h.19c.33-.66.84-1.37,1.52-2.12.81-.85,1.52-1.35,2.14-1.49l.68.25.44.62c.54.23.95.56,1.24,1v.5l.81.81.87.25v.19l.47.5Z" style="fill: #42210b;"/>
      <path d="M725.9,436.69l-.28,1.68h-.19v.44l-.44.5v.19l-.68.5-.68,1.15-.68.44.25.37c-.25.5-.5.87-.75,1.12l-.12.62c-.35.21-.81.66-1.37,1.37-.62.75-1.1,1.24-1.43,1.49-.5-.06-1.02.02-1.56.25-.54-.17-1.37-.25-2.49-.25-.58.12-.95.23-1.12.31l-1.18-.31c-.73-.64-1.36-1.04-1.9-1.18-.33-.29-.77-.79-1.31-1.49-.08-.33-.17-.91-.25-1.74-.33-.39-.71-1.04-1.12-1.93-.83-.68-1.24-1.81-1.24-3.39l.62-1.62c.41-.41,1-.81,1.74-1.18.21-.29.37-.58.5-.87l1.12-.68,1.12-1.56,1.15-.44h.69l.94-.93,1.12-.25.44.25c.19.25.35.79.5,1.62h.43l.25-.25,1.11-.44.43-.5h1.11l.93.5.43,1.56,1.12.44h.25c.25.37.62.68,1.12.93.42.68.88,1.78,1.4,3.3ZM724.03,436.13l-.43-1.18v-.19l-.49-.44-.18-.5-.93-.44-.68.44c-.14.44-.37.81-.68,1.12.04.15-.02.46-.19.93l-.5.25v.19l-.68.5-1.12-.68-.19-.25v-1.8l-.5-1.12v-.25l-.44-.25v-.19l-.44-.25-.93.25-.31.56-1.06.56h-.19c-.1.37-.5.83-1.18,1.37v.44l.25.25v.44l.12.31-.56,1.31v.87c.12.12.27.35.44.68,0,.08-.01.2-.03.34-.02.15-.03.26-.03.34,0,.06,0,.17.03.33.02.16.03.26.03.33.19.29.33.77.43,1.43l.93.68.43.87,1.12.93,1.61.25c.45-.31,1.16-.68,2.11-1.12l-.06-.5c.37-.27.91-.66,1.61-1.18l.19-.62c.39-.33.76-.8,1.12-1.4l.93-.44c.37-.91.52-1.97.43-3.17Z" style="fill: #42210b;"/>
      <path d="M760.34,441.64c-.44.79-.78,1.35-1.03,1.68-.46.58-.95,1-1.49,1.24-.39.64-.85,1.1-1.37,1.37l-.44.68-1.37.25-1.37-.25-.44-.44v-.25l-.68-.68v-.25l-.25-.19-.44-.93v-.87c0-.21.04-.44.12-.68l.5-.44c0-.06-.01-.14-.03-.25-.02-.1-.03-.19-.03-.25,0-.64.12-1.34.37-2.08h-.25v-.44c0-.12.04-.32.12-.58.08-.26.12-.46.12-.61.33-.73.93-1.76,1.8-3.11v-1.12l.19-.5h-.68c-.54.42-1.43,1.02-2.68,1.8h-.68l-.93.5v.19c-.56.17-1.02.39-1.37.68v.25h-.19v.25l-.25.19v.25l-1.15,1.56c.04.37-.12.83-.5,1.37.04.15-.04.61-.25,1.4l-.37.44v.25l.31.81-.12.56-.44.44c-.29.44-.44,1.43-.44,2.99l-.93.44h-.68l-.44-.25-.25-.44-.68-.25-.44-.68v-.19l-.25-.25c.15-.56.19-1.08.12-1.56l.25-.5v-.19c.44-.44.7-.83.81-1.18v-.44l.62-1.12c-.12-1.47.1-2.62.68-3.45v-.68l.25-.19c-.19-.97-.27-1.51-.25-1.62-1,.25-1.74.62-2.24,1.12h-.44l-.93,1.18h-.25v.19l-.44.5-.68.19-.44.44v.5h-.25v.44l-.44.25-.25.44-.87.25-.44.47v.25l-.25.44v.25l-.44.44c.08.93,0,1.68-.25,2.24l-.25-.19v.19l-.44.68-.72.44-.25.5v.19h-.44v.25l-.25.25c-.42.02-1.03.1-1.83.25-.73.12-1.38.19-1.96.19-.39-.1-.62-.19-.68-.25-.5-.5-.81-.95-.93-1.37l.25-.44h.44l.25-.19.87-.25.37.5.56-.06.87-.68.5-1.12v-.93l.44-.44.44-1.4.25-.19c.08-1.16.31-1.99.68-2.49h.44c.25-.73.34-1.41.28-2.05-.25-.33-.43-.87-.53-1.62.21-.6.29-.97.25-1.12h-.25l-.68.31-1.12-.06-.81.56c-.15.02-.44.08-.89.17-.45.09-.77.14-.98.14-.1,0-.26-.01-.47-.03-.21-.02-.36-.03-.47-.03l-.37-1.12.62-.62c.33-.02,1.12-.12,2.36-.31.97-.12,1.76-.19,2.36-.19l.74-.37.65.19.68-.56.99-.25.81-.56c.83-.14,1.28-.21,1.36-.19l.81.31.12.56-.25.68-.25.25c.04.35.18.84.41,1.46.23.62.36,1.11.41,1.46l.81.12c.62-.37,1.6-.87,2.93-1.49l.44-.68c1.16-.54,2.18-.89,3.06-1.06l.84-.75,1.37.25.5.44v.44h.19c-.04.25.04.64.25,1.18l.44.19.44-.19.5.19c.31-.1.68-.33,1.12-.68v-.19c.27-.06.76-.3,1.46-.7.71-.4,1.13-.71,1.28-.92.46.04,1.58-.08,3.36-.37l.5.19.68.68.19.44v1.8c-.15.1-.44.71-.87,1.8-.89.29-1.43.97-1.62,2.05l-.25.25v.44l-.19.19v1.18l.19.44c-.02.35-.35,1.44-1,3.27l.25.87.75-.25c.52-.39,1.29-1,2.3-1.8v-.25h.25c.62.17.92.25.9.25Z" style="fill: #42210b;"/>
      <path d="M785.78,430.03l-.25.44-.43.25v.25l-1.8.19-.25.5v.62l-.19.25v.68h-.25v.25l-.37.44-.12.56-.5.37.19.44c-.19.33-.45,1.08-.78,2.24l-.94,1.12h.25v.25c-.69.46-1.23.92-1.62,1.4l-.12.37.12.31-.25,2.05h-.18v.44l-.43.68.19.44.68.19c.54-.6,1.38-1.12,2.52-1.56l.37.68-.59,1.18c-.91.58-1.68,1.33-2.3,2.24-1.24.35-2.07.5-2.49.44v-.19h-.68c-.39-.48-.85-.87-1.37-1.18.04-.48-.02-1.14-.19-1.99l-.5-.5h-.19c-.95.81-1.49,1.41-1.62,1.8l-1.12.25-.44.68-1.31.5-.78-.25-.75.12c-.77-.48-1.43-.75-1.99-.81l-.87-.68c-.62-1.41-.93-2.43-.93-3.05,0-.33.08-.75.25-1.24h.19c.1-.29.25-.82.44-1.59l-.19-.5v-.25c0-.21.13-.51.39-.9.26-.39.4-.69.42-.9,1.24-.87,1.99-2.16,2.24-3.86.44-.29.78-.6,1.03-.93.75-.25,1.29-.46,1.62-.62h.25c.46-.54.97-1,1.56-1.37l.25-.5,2.05-.68,1.8.25.68.44h.87l.93-.87h.87l1.18.44.9-.25.5.25.19.44,1.62-.19.68-.5.44.25.68-.25c.19.19.33.5.44.93ZM778.72,430.97l-1.37-.5c-.83.23-1.58.31-2.24.25l-1.62.68-.87.87c-.06.33-.43,1.33-1.1,2.99-.67,1.66-1.07,2.53-1.2,2.61l-.12.68-.62.56-.12.44.12.44-.68.96v.81l-.37.37v.62l-.25.44v.25l-.65.25v.87l.19.25.96.44c.5-.17,1.24-.62,2.24-1.37h.25l.68-.44c.23-.33.6-.79,1.12-1.37v-.19l.44-.25c.46-.83,1.14-2.04,2.05-3.64v-.25l.68-.68c.06-.68.33-1.43.81-2.24-.04-.14.02-.54.19-1.18l.5-.19v-.25l-.12-.25c.12-.29.35-.73.68-1.31h.19l.25-.68Z" style="fill: #42210b;"/>
      <path d="M808.86,431.53l-.19.25v1.15l-.25.25-.5,1.15.19.44-.25.25c-.06.48-.22,1.14-.47,1.99l.12.31c-.42.56-.9,1.4-1.46,2.52-.58,1.22-.87,2.08-.87,2.58l-.47.68.12.9c.91-.66,1.6-1.32,2.05-1.96l.81-.34.96.25c-.08.44-.47,1.06-1.15,1.87-.79.93-1.3,1.63-1.52,2.08l-.44.28v.19l-1.52.96c-.68-.06-1.47-.45-2.36-1.15-.1-.19-.34-.42-.72-.72l-.31-.68v-.72l-.25-.44.19-.53-.06-.68c0-.87.44-2.1,1.32-3.69.88-1.59,1.29-2.99,1.23-4.22.41-.75.72-1.66.9-2.74l-.65-.25-.25.25v.19l-1.4.96v.25l-.9.19v.25c-.68.23-1.15.53-1.4.9v.5c-.27.19-.82.34-1.65.47v.44h-.44l-.22.25h-.25l-.25.44v.53l-.68.19v.44l-.34.72-.06,1.09c-.27.39-.52,1.03-.75,1.91-.23.88-.47,1.52-.72,1.91-.39.25-.8.7-1.21,1.34-.48.75-.84,1.23-1.09,1.46-.75.17-1.89.42-3.42.75l-.78-.31-1.09.31-1.18-.81-.53-1.21.25-1.09.72-.25c.64.31,1.17.6,1.59.87l1.15-.19.78-.5.19-1.34.25-.19c-.02-.75.06-1.41.25-1.99.31-.58.76-1.47,1.34-2.68.21-1,.67-2.46,1.4-4.39l-.19-.72.19-.5-.44-.44-.72.25v.19l-.93.25-.65.44c-.93.15-1.72.32-2.36.53l-1.15-.53-.25-.68.25-.44c2.2.04,4.52-.66,6.97-2.12h.5l1.52-1.09.78-.12.68.31c.91.93,1.3,1.7,1.15,2.3l-.44.25v.47l-.47.68c.04.17,0,.47-.12.9l.12.5.47.25c.79-.27,1.64-.74,2.55-1.4v-.25h.25l.62-.44h.28l.68-.53.25-.44.9-.19v-.25c.62-.33,1.17-.57,1.65-.72l.19-.25h.53c.62-.25,1.09-.55,1.4-.9h.68l.19.47h.28c.35.44.64,1.05.87,1.84v.72Z" style="fill: #42210b;"/>
      <path d="M832.44,430.9l-.06.62c-.29.58-.62,1.06-1,1.43l-2.21.19c-1.08-.58-1.87-1.04-2.36-1.37-.58.08-1.06.12-1.43.12-.12,0-.31-.03-.56-.09-.25-.06-.44-.09-.56-.09-.04,0-.56.06-1.56.19l-1.18.75c-.06.27-.19.5-.37.68-.25.68-.71,1.7-1.37,3.05v.62l-.68.44.06.5-.31.56-.5.25v.25l-.68.87c-.19.79-.26,1.34-.22,1.65h.47c-.23.89-.31,1.72-.25,2.49l.25.44c.15.1.68.33,1.62.68.7-.04,1.67-.29,2.89-.75,1.31-.48,2.17-.95,2.58-1.43l.25-.81.44-.56,1-.56.87.12.31.62.5.44v.68c-.85.6-1.45,1.12-1.8,1.56-.71.29-1.47.66-2.3,1.12-.52.08-.98.25-1.37.5h-.19l-.25.44v.12h-.62l-.75.56h-1.12c-1.1,0-2.08-.15-2.96-.44v-.5l-.93-.68c-.1-.41-.25-.71-.44-.87-.39-.35-1-.62-1.8-.81-.19-.58-.5-1.12-.93-1.62-.17-.58-.25-1.44-.25-2.58,0-.56.19-1.26.58-2.1.38-.84.79-1.43,1.23-1.76l-.12-.25.12-.44h.25l.44-.93v-.19l.5-.68.75-.31c.12-.46.37-.87.75-1.24l.9-.5.37-.93.87-.25.31-.5h.81l1.18-.62c.7-.04,1.74-.19,3.11-.44l1.87.44.44.68c.93.17,1.64.44,2.12.81.23,0,.57-.01,1.03-.03.46-.02.81-.03,1.06-.03.39,0,.81.17,1.24.5Z" style="fill: #42210b;"/>
      <path d="M858.39,430.16c-.33.66-.55,1.18-.67,1.56h-.24l-.19.68-.5.44-.19.5-.69.68v.19l-.68,1.12-1.37.68.19.25-.31.31c-.19.85-.46,2.13-.81,3.83l-.87.87-.25,1.12-.44.5c.06.5-.02,1.02-.25,1.56l-.47.5v.44h-.44l-.5,1.56c-.42.52-.79.83-1.12.93v.25c-.75.85-1.04,1.8-.87,2.86l-.5.75v.44c-.23.46-.68,1.07-1.37,1.84v.5l-.44.19v.5l-.68.44v.44h-.25c-.02.5-.39,1.51-1.12,3.05-.35.21-.81.56-1.37,1.06l.19.5-.19.62-.87.68-.06.31c-.1.08-.54.12-1.31.12l-.44.25v.68c-.93.79-1.47,1.39-1.62,1.8h-.28l-.19.44-.68.5-1.12.22-.5.44-.19.5-1.62.68h-.19l-.25.44c-.85.21-2.14.52-3.86.93-.56.12-1.76.19-3.61.19l-.72-.19c-.39-.52-1-.98-1.81-1.37l-.5-.68v-.93l-.44-.9v-1.18l.25-.19v-.93l.93-1.18c.75-.1,1.27-.23,1.56-.37h1.59s.5.06,1.37.19l.44.5c.23.68.31,1.2.25,1.56l-.44.68c-.62.41-1.29.62-1.99.62l-1-.19-.72-.44h-.19v.68l-.44.68h.62l.72,1.15h.5l.19.44.93.5c1.18-.06,2.32-.29,3.42-.68.15-.19.37-.42.68-.68.98.19,2.03-.2,3.18-1.15v-.25l.62-.25v-.19l.93-.93h.25l.44-.93h.69l1.4-1.56c.42-.66.87-1.72,1.37-3.17.58-.58.87-1.41.87-2.49h.25v-.44l.25-.5.44-.19.68-1.4h.19v-.5l.68-.62.25-2.3c-.23-.56-.31-1.02-.25-1.37h.25c.14-.33.37-.62.68-.87-.54-.29-1.31-.37-2.31-.25-.4-.17-.79-.34-1.18-.51-.39-.18-.75-.46-1.06-.86-.56-.19-.87-.27-.94-.25l-.72-.87h-.19c.06-.5-.31-1.39-1.12-2.68l-.25-1.18c.04-.25.18-.75.4-1.49.21-.62.3-1.11.28-1.46l.68-.25.12-.5.34-.19v-.25l1.12-.87.5-1.12v-.5l.44-.68-.25-.68.25-.68-.25-.44c-.79.06-1.48.29-2.08.68-.23.68-.52,1.14-.87,1.37-.68.1-1.51.48-2.49,1.12h-.25l-1.12-.19-.25-.25.25-.68.44-.25.5.25,1.12-.44.68-.68.19-.5c.35-.46.95-1.06,1.8-1.8h.53l1.37-.87c.31.04.83-.02,1.56-.19.81-.17,1.35-.25,1.62-.25.31,0,.83.15,1.56.44.23.87.54,1.76.93,2.68h-.25l-.44.25v.93h-.25v.19h-.19l-.12,1.18-.31.62.19,1.18-.44,1.56-.5.44v.5h-.19l-.68,1.15h-.25c.04.17-.02.58-.19,1.24.31.81.6,1.31.87,1.49v.19c.33.1.71.42,1.12.93l.25.68.44.25,1.81-.31c.44-.33,1.06-.85,1.87-1.56l.19-.44.93-.25v-.62c.25-.27.5-.85.75-1.74.33-1.14.54-1.79.62-1.96l.9-.87.44-1.87.5-.62v-.25h.19l.25-.68h.25l.44-.25.25-.87h.19v-.68l.25-.25v-1.56l.68-.68c.45-.12,1.14-.35,2.05-.68h1.36l.43,1.37Z" style="fill: #42210b;"/>
    </g>
    <g>
      <path d="M1490.01,423.12l-3.9,1.12c-.13-1.72-.5-3.15-1.11-4.27-.61-1.13-1.46-1.97-2.57-2.52-.6-.29-1.57-.56-2.91-.82-1.34-.25-3.04-.46-5.1-.62l-1.88,16.07,12.44-.66-3.12,6.99-9.94-2.12-2.19,16.27,9.13.12,3.19-4.65,5.09-.29.12,7.77-23.48-1.33,1.36-25.42,3.26.17.54-2.09-3.75-.05.2-2.95,3.56.27.37-2.6h-3.8l.12-2.87,3.56.27.49-2.24-3.92-.19.24-4.43c1.61.13,3.22.26,4.85.38,1.62.12,3.25.23,4.87.33,1.93.23,3.65.56,5.16.99,1.51.43,2.8.97,3.87,1.62,1.41.84,2.55,1.92,3.42,3.21.87,1.3,1.47,2.82,1.81,4.55ZM1481.6,421.52l-.73,6.45-5.67-1.39,1.9-3.97,4.51-1.1Z" style="fill: #42210b;"/>
      <path d="M1513.49,436.28l-10.33,20.04-.68-1.26-2.11,1.51-.87-1.4,2.22-1.52-1.29-2.32-2.32,1.48-.87-1.52,2.37-1.29-1.5-2.74-2.32,1.39-.87-1.39,2.43-1.41-1.5-2.64-2.37,1.25-.87-1.35,2.41-1.32-1.73-3.17-2.54,1.32-.67-1.39,8.35-4.36,5.61,16.19,6.44-15.43,3.01,1.34ZM1505.44,444.09c0,.46-.11.81-.34,1.02-.22.22-.56.33-1.01.33s-.77-.11-1-.33c-.23-.22-.35-.56-.35-1.02,0-.44.12-.77.35-.99.23-.23.57-.34,1-.34s.79.11,1.01.34c.23.23.34.56.34.99ZM1507.17,439.57c0,.45-.11.79-.33,1.01-.22.23-.56.34-1.02.34s-.79-.11-1.02-.34-.35-.56-.35-1.01.12-.77.35-1c.23-.23.57-.35,1.02-.35s.81.12,1.02.35c.22.23.33.57.33,1ZM1508.99,435.06c0,.45-.11.78-.32,1s-.54.33-.97.33-.77-.11-1-.33-.35-.55-.35-1,.12-.79.35-1.01.57-.34,1-.34.76.11.97.34.32.56.32,1.01Z" style="fill: #42210b;"/>
      <path d="M1539.53,443.1l-2.65.72c.04.27.08.55.11.85s.04.62.04.96c0,.51-.04,1.01-.11,1.5-.07.49-.18.98-.32,1.48l2.12.97-1.08,1.86-1.67-1.19c-.54,1.14-1.23,2.11-2.07,2.9-.85.79-1.85,1.42-3,1.88l.59,2.52-1.94.49-.38-2.48c-.42.07-.79.12-1.11.16-.32.04-.59.05-.81.05-.85,0-1.67-.11-2.48-.32-.81-.21-1.59-.54-2.33-.99l-1.56,2.44-1.67-.97,1.77-2.54c-.56-.47-1.06-.99-1.49-1.57-.43-.58-.79-1.21-1.08-1.88l-2.63.83-.38-1.8,2.4-.53c-.13-.52-.22-1.02-.27-1.5-.06-.48-.08-.91-.08-1.31,0-.44.02-.86.07-1.28.05-.41.13-.81.24-1.19l-2.35-.76.48-1.81,2.42,1.01c.34-.86.78-1.64,1.32-2.34.54-.7,1.18-1.32,1.91-1.86l-1.41-2.22,1.63-1.12,1.39,2.37c.65-.31,1.31-.54,2-.7.68-.15,1.39-.23,2.12-.23s1.42.07,2.08.22c.65.15,1.28.36,1.89.64l1.12-2.02,1.64.93-1.14,2.05c.83.6,1.54,1.3,2.13,2.09.59.79,1.08,1.67,1.48,2.66l2.58-1.14.49,2.15ZM1531.12,445.63c0-.88-.08-1.7-.25-2.44-.17-.74-.44-1.43-.82-2.04-.45-.74-.98-1.3-1.6-1.67-.62-.37-1.34-.56-2.17-.56s-1.52.19-2.16.56c-.63.37-1.17.94-1.61,1.7-.37.62-.64,1.3-.81,2.05-.18.75-.26,1.56-.26,2.41,0,.92.09,1.75.26,2.5.18.75.44,1.43.79,2.04.44.76.97,1.33,1.61,1.69.63.37,1.36.55,2.18.55s1.58-.18,2.21-.55c.63-.37,1.16-.93,1.58-1.69.34-.61.6-1.29.78-2.04.18-.75.27-1.59.27-2.5Z" style="fill: #42210b;"/>
      <path d="M1562.41,449.94c-1.33,1.78-2.81,3.12-4.42,4s-3.36,1.33-5.26,1.33c-2.94,0-5.34-.9-7.19-2.71-1.85-1.81-2.78-4.18-2.78-7.1s1.06-5.39,3.17-7.5c2.11-2.12,4.61-3.18,7.48-3.18.86,0,1.65.07,2.37.21.72.14,1.37.35,1.95.63.77.36,1.35.83,1.73,1.39.38.56.57,1.21.57,1.96,0,.69-.28,1.38-.85,2.05-.57.68-1.43,1.35-2.58,2.01l-.92-.88c.3-.29.54-.6.73-.92.19-.32.32-.64.39-.98l-2.51-.63.3-.91,2.28.32c-.04-.35-.17-.67-.37-.95-.2-.28-.49-.53-.85-.74-.31-.18-.63-.32-.98-.4-.34-.08-.7-.13-1.08-.13-.2,0-.41.01-.62.03-.22.02-.44.05-.67.07l.49,3.29-.97.23-.87-2.87c-.65.3-1.21.72-1.68,1.27-.47.55-.85,1.21-1.13,1.98l2.92.87-.42,1.08-2.88-.72c-.11.32-.2.71-.26,1.15-.06.44-.09.95-.09,1.53,0,.27.01.52.04.77s.07.48.13.71l2.4-.82.65,1.25-2.76.97c.13.42.32.85.59,1.3.27.44.6.9.99,1.38l1.92-1.5.93.76-1.67,1.6c.46.37.99.64,1.57.81.58.18,1.25.26,1.99.26l.19-2.47h1.1l.21,2.43c.51-.04,1-.14,1.49-.31.49-.16.97-.38,1.47-.66l-.76-2.11.97-.36.82,1.71c.24-.18.49-.4.75-.67.26-.26.52-.56.79-.9l1.21,1.04Z" style="fill: #42210b;"/>
      <path d="M1586.14,452.26l-.02,1.14c-2.18.99-4.34,1.73-6.47,2.21-2.13.49-4.24.73-6.32.73-1.15,0-2.21-.11-3.17-.34-.96-.23-1.81-.56-2.57-.99-.9-.52-1.58-1.19-2.04-2s-.69-1.77-.69-2.85c0-1.91.96-3.62,2.88-5.13,1.92-1.51,4.79-2.81,8.61-3.9-.31-.9-.83-1.58-1.57-2.05-.74-.46-1.68-.7-2.82-.7-1.22,0-2.34.25-3.33.75s-1.88,1.23-2.66,2.21l-1.13-1.09c1.18-1.81,2.65-3.18,4.39-4.1,1.75-.92,3.78-1.38,6.1-1.38,1.89,0,3.54.52,4.97,1.57,1.43,1.05,2.63,2.62,3.62,4.71.77,1.65,1.35,3.4,1.72,5.26s.54,3.84.5,5.94ZM1577.84,450.71c0-1.28-.06-2.55-.18-3.8-.12-1.25-.3-2.49-.55-3.71-1.33.38-2.52.78-3.58,1.21-1.06.43-1.99.88-2.78,1.36l2.16,8.72c1.12,0,2.09-.06,2.91-.19.81-.13,1.47-.33,1.96-.61.03-.51.05-1.01.05-1.5,0-.49.01-.98.01-1.48ZM1582.85,444.91c0-.51-.12-.89-.37-1.14-.25-.25-.62-.38-1.13-.38s-.89.13-1.15.38c-.26.25-.39.63-.39,1.14s.13.88.39,1.13c.26.25.64.37,1.15.37s.88-.12,1.13-.37c.25-.25.37-.62.37-1.13ZM1583.72,450.61c0-.53-.19-.99-.56-1.37s-.83-.57-1.38-.57-1,.18-1.38.55c-.39.37-.58.83-.58,1.39s.19,1.01.58,1.37c.39.37.85.55,1.38.55s1.01-.19,1.38-.56c.37-.37.56-.83.56-1.36Z" style="fill: #42210b;"/>
      <path d="M1603.95,436.46l-.32,2.19-4.22.32-.32,2.53,4.54.13-.87,3-4.03-.25-1.58,11.63-3.1.55-.4-12.56-3.8-.27.63-2.39,3.12.06-.11-1.98-4.03.32-.91-3.27h4.83l-.21-7.34,7.77-.89-1.14,8.23h4.14ZM1598.47,433.09c0-.58-.14-1.01-.43-1.3-.29-.29-.72-.43-1.3-.43s-1.01.14-1.3.43c-.29.29-.43.72-.43,1.3s.14,1.03.43,1.32c.29.29.72.43,1.3.43s1.01-.14,1.3-.43c.29-.29.43-.73.43-1.32ZM1597.71,438.29c0-.46-.11-.81-.33-1.03-.22-.23-.55-.34-1-.34s-.81.11-1.03.34c-.23.23-.34.57-.34,1.03s.11.78.34,1c.22.22.57.33,1.03.33s.78-.11,1-.33c.22-.22.33-.55.33-1Z" style="fill: #42210b;"/>
      <path d="M1615.79,456.87l-8.89-1.15,3.29-20.55h3.97l1.62,21.7ZM1616.51,430.09l-.53,1.29-1.84-.95c-.2.25-.42.46-.65.61-.24.16-.51.27-.8.34l.42,1.73-1.43.21-.36-1.82c-.22-.04-.45-.12-.66-.24-.22-.12-.43-.26-.62-.41l-1.39,1.29-.97-1.12,1.63-1.18c-.14-.27-.22-.55-.24-.84s0-.61.07-.95l-1.88-1.18.7-1.14,1.73,1.18c.17-.21.36-.39.58-.54.22-.15.47-.26.75-.35l-.36-2.49h1.35l.08,2.32c.31.04.59.11.84.21.25.1.49.23.72.38l1.48-1.18.97.97-1.69,1.14c.11.15.19.39.23.72.04.32.06.73.04,1.22l1.84.78ZM1613.29,451.69c0-.53-.19-.99-.57-1.37s-.84-.57-1.39-.57c-.52,0-.97.19-1.35.57s-.57.84-.57,1.37.19.99.57,1.36c.38.37.83.56,1.35.56.55,0,1.01-.19,1.39-.56.38-.37.57-.83.57-1.36ZM1613.29,445.97c0-.49-.12-.87-.37-1.12s-.62-.38-1.13-.38-.91.13-1.16.38-.38.63-.38,1.12.13.89.38,1.14.64.38,1.16.38.88-.13,1.13-.38.37-.63.37-1.14Z" style="fill: #42210b;"/>
      <path d="M1644.14,443.1l-2.65.72c.04.27.08.55.11.85s.04.62.04.96c0,.51-.04,1.01-.11,1.5-.07.49-.18.98-.32,1.48l2.12.97-1.08,1.86-1.67-1.19c-.54,1.14-1.23,2.11-2.07,2.9-.85.79-1.85,1.42-3,1.88l.59,2.52-1.94.49-.38-2.48c-.42.07-.79.12-1.11.16-.32.04-.59.05-.81.05-.85,0-1.67-.11-2.48-.32-.81-.21-1.59-.54-2.33-.99l-1.56,2.44-1.67-.97,1.77-2.54c-.56-.47-1.06-.99-1.49-1.57-.43-.58-.79-1.21-1.08-1.88l-2.63.83-.38-1.8,2.4-.53c-.13-.52-.22-1.02-.27-1.5-.06-.48-.08-.91-.08-1.31,0-.44.02-.86.07-1.28.05-.41.13-.81.24-1.19l-2.35-.76.48-1.81,2.42,1.01c.34-.86.78-1.64,1.32-2.34.54-.7,1.18-1.32,1.91-1.86l-1.41-2.22,1.63-1.12,1.39,2.37c.65-.31,1.31-.54,2-.7.68-.15,1.39-.23,2.12-.23s1.42.07,2.08.22c.65.15,1.28.36,1.89.64l1.12-2.02,1.64.93-1.14,2.05c.83.6,1.54,1.3,2.13,2.09.59.79,1.08,1.67,1.48,2.66l2.58-1.14.49,2.15ZM1635.73,445.63c0-.88-.08-1.7-.25-2.44-.17-.74-.44-1.43-.82-2.04-.45-.74-.98-1.3-1.6-1.67-.62-.37-1.34-.56-2.17-.56s-1.52.19-2.16.56c-.63.37-1.17.94-1.61,1.7-.37.62-.64,1.3-.81,2.05-.18.75-.26,1.56-.26,2.41,0,.92.09,1.75.26,2.5.18.75.44,1.43.79,2.04.44.76.97,1.33,1.61,1.69.63.37,1.36.55,2.18.55s1.58-.18,2.21-.55c.63-.37,1.16-.93,1.58-1.69.34-.61.6-1.29.78-2.04.18-.75.27-1.59.27-2.5Z" style="fill: #42210b;"/>
      <path d="M1669.99,453.61l-8.12,1.45c.11-4.31.19-7.24.23-8.81.04-1.57.06-2.55.06-2.94,0-1.31-.21-2.29-.63-2.94-.42-.65-1.06-.98-1.92-.98-.8,0-1.64.36-2.52,1.09-.88.72-1.8,1.81-2.75,3.26l-.61,10.92-3.82.52-2.26-19.35,7.22-1.52-.32,6.08c1.04-1.39,2.15-2.44,3.31-3.16,1.17-.71,2.39-1.07,3.67-1.07,1.69,0,3.07.63,4.15,1.9,1.08,1.27,1.87,3.17,2.38,5.72l1.94,9.85ZM1666.5,445.33c0-.44-.11-.77-.34-1-.22-.23-.56-.35-1.01-.35s-.79.12-1.02.35c-.23.23-.35.57-.35,1,0,.46.12.81.35,1.04.23.23.57.35,1.02.35s.79-.12,1.01-.35c.23-.23.34-.58.34-1.04ZM1667.29,450.48c0-.48-.18-.88-.53-1.21-.35-.33-.76-.5-1.22-.5-.59,0-1.03.14-1.32.43s-.43.71-.43,1.28.14,1.01.43,1.3c.29.29.73.43,1.32.43.46,0,.87-.17,1.22-.5.35-.33.53-.74.53-1.23Z" style="fill: #42210b;"/>
    </g>
    <g>
      <path d="M1136.97,444.7l-.16,2.15c-2.79-.26-5.74-.39-8.87-.39-1.35,0-4.02.26-8.01.78v-2.23l6.95-.16c-1.85-13.38-2.83-29.49-2.93-48.32l-5.78.16.08-1.84c4.79.05,8.09-.05,9.88-.31,1.8-.26,4.02-.77,6.68-1.52l.39,1.99-5.2,1.05c-.96,12.21-1.45,22.84-1.45,31.88,0,5.52.14,11.13.43,16.84,2.21,0,4.87-.03,7.97-.08Z" style="fill: #42210b;"/>
      <path d="M1150.33,440.14c-.31,1.51-.93,2.26-1.86,2.26-1.48,0-2.23-.77-2.23-2.32,0-1.13.46-2.11,1.4-2.96.93-.84,1.98-1.26,3.15-1.26,1,0,1.87.45,2.62,1.36.75.91,1.13,1.94,1.13,3.09,0,2.21-1.08,4.11-3.25,5.7-2.17,1.58-4.31,2.37-6.41,2.37-.86,0-1.74-.44-2.62-1.31s-1.33-1.91-1.33-3.1c0-2.77.4-6.46,1.2-11.09.8-4.63,1.37-9.27,1.71-13.92.34-4.65.51-11.37.51-20.16l-4.08.13.07-1.13c4.16,0,8.26-.6,12.29-1.79v1.16l-2.79.9c-1.35,10.96-2.34,18.36-2.97,22.2-.63,3.84-1.58,8.11-2.86,12.8-1.27,4.69-1.91,7.92-1.91,9.66,0,.93.36,1.91,1.08,2.94.72,1.03,1.47,1.54,2.24,1.54,1.86,0,3.45-.58,4.77-1.74,1.32-1.16,1.98-2.71,1.98-4.63,0-.71-.22-1.35-.65-1.93-.44-.58-1-.86-1.69-.86-1.76,0-2.64.7-2.64,2.09,0,.51.31.76.94.76.69,0,1.29-.3,1.78-.9l.44.13Z" style="fill: #42210b;"/>
      <path d="M1166.8,440.14c-.31,1.51-.93,2.26-1.86,2.26-1.48,0-2.23-.77-2.23-2.32,0-1.13.46-2.11,1.4-2.96.93-.84,1.98-1.26,3.15-1.26,1,0,1.87.45,2.62,1.36.75.91,1.13,1.94,1.13,3.09,0,2.21-1.08,4.11-3.25,5.7-2.17,1.58-4.31,2.37-6.41,2.37-.86,0-1.74-.44-2.62-1.31s-1.33-1.91-1.33-3.1c0-2.77.4-6.46,1.2-11.09.8-4.63,1.37-9.27,1.71-13.92.34-4.65.51-11.37.51-20.16l-4.08.13.07-1.13c4.16,0,8.26-.6,12.29-1.79v1.16l-2.79.9c-1.35,10.96-2.34,18.36-2.97,22.2-.63,3.84-1.58,8.11-2.86,12.8-1.27,4.69-1.91,7.92-1.91,9.66,0,.93.36,1.91,1.08,2.94.72,1.03,1.47,1.54,2.24,1.54,1.86,0,3.45-.58,4.77-1.74,1.32-1.16,1.98-2.71,1.98-4.63,0-.71-.22-1.35-.65-1.93-.44-.58-1-.86-1.69-.86-1.76,0-2.64.7-2.64,2.09,0,.51.31.76.94.76.69,0,1.29-.3,1.78-.9l.44.13Z" style="fill: #42210b;"/>
      <path d="M1203.4,446.81c-2.55.75-4.61,1.53-6.18,2.32l-.76-7.84c-2.79,4.05-6.14,6.08-10.06,6.08-2.99,0-5.73-1.19-8.24-3.57s-3.75-5.27-3.75-8.69c0-1.4.41-2.94,1.23-4.65s1.75-3.08,2.81-4.14c1.05-1.05,1.96-2.25,2.72-3.6.76-1.35,1.15-2.41,1.15-3.19,0-2.37-1.02-3.55-3.06-3.55-.89,0-1.73.25-2.54.76-.81.51-1.21,1.14-1.21,1.89,0,.51.21.96.63,1.34.42.39.88.58,1.36.58.58,0,.93-.06,1.08-.17.14-.11.22-.29.22-.53,0-.55-.48-.92-1.43-1.1.46-.53.84-.8,1.13-.8.4,0,.76.18,1.08.55.32.37.48.79.48,1.28,0,.73-.3,1.41-.91,2.04-.61.63-1.28.95-2.01.95-.69,0-1.32-.34-1.91-1.01-.59-.68-.88-1.38-.88-2.11,0-1.37.51-2.7,1.53-3.99,1.02-1.28,2.1-1.93,3.25-1.93,1.26,0,2.3.53,3.12,1.58.82,1.05,1.23,2.32,1.23,3.8,0,2.04-.54,4.01-1.63,5.91-2.37,4.18-3.55,7.43-3.55,9.73,0,3.43.82,6.13,2.47,8.1,1.65,1.97,3.87,2.96,6.66,2.96,3.41,0,6.33-2.28,8.77-6.84-.8-7.04-1.96-14.01-3.49-20.89l-3.52.2.13-1.43c3.94-.07,7.62-.68,11.03-1.83l.33,1.33-3.39.95c0,7.49.4,17.29,1.2,29.41,1.59-.33,3.08-.83,4.45-1.49l.46,1.56Z" style="fill: #42210b;"/>
      <path d="M1213.07,442.06c-.95-.91-1.77-1.36-2.46-1.36-.38,0-.84.3-1.38.9-.54.6-.81,1.07-.81,1.43,0,1.08.64,2.1,1.91,3.06,1.27.95,2.88,1.43,4.83,1.43.93,0,1.93-.58,2.99-1.73,1.06-1.15,1.59-2.39,1.59-3.72,0-1.13-.43-2.34-1.28-3.64-.85-1.3-3.26-3.54-7.22-6.73-1.71-1.35-2.89-2.48-3.55-3.4s-1.18-1.96-1.54-3.14c-.37-1.17-.55-2.35-.55-3.52,0-2.13.86-4.1,2.59-5.91,1.73-1.82,3.83-2.72,6.31-2.72,1.95,0,3.66.47,5.13,1.41,1.47.94,2.21,2.23,2.21,3.87,0,1.33-.5,2.56-1.51,3.7-1.01,1.14-2.15,1.71-3.44,1.71-1.04,0-1.92-.53-2.62-1.58-.71-1.05-1.06-2.06-1.06-3.04,0-1.22.7-1.83,2.09-1.83.44,0,.85.08,1.23.23-.04.09-.14.22-.3.4-.8.89-1.2,1.69-1.2,2.42,0,.53.4.96,1.2,1.28.8.32,1.46.48,1.99.48.44,0,.84-.24,1.2-.71.35-.48.53-.94.53-1.38,0-1.51-.55-2.85-1.64-4.04-1.1-1.18-2.41-1.78-3.94-1.78-1.42,0-2.6.55-3.55,1.64-.95,1.1-1.43,2.26-1.43,3.5,0,4.32,1.97,7.97,5.91,10.96,4.18,3.23,6.28,6.41,6.28,9.53,0,1.82-.38,3.38-1.13,4.7-.75,1.32-1.66,2.4-2.72,3.25-1.06.85-1.9,1.37-2.52,1.56s-1.58.28-2.89.28c-1.39,0-2.59-.69-3.59-2.06-1-1.37-1.49-2.84-1.49-4.42,0-1.13.42-2.15,1.26-3.06s1.73-1.36,2.66-1.36c.66,0,1.25.18,1.74.53.5.35.75.8.75,1.33,0,.46-.19.96-.56,1.49Z" style="fill: #42210b;"/>
      <path d="M1239.47,447.38c-5.11,0-8.3.08-9.57.25-1.26.17-2.36.35-3.29.55v-1.83l4.28-.13c0-9.61-.5-18.8-1.5-27.57l-3.69-.13v-1.23c2.28.04,3.86.07,4.75.07,1.57,0,3.69-.41,6.34-1.23v1.53l-2.99.73-.7,10.69-.8,16.87c2.52,0,4.9-.14,7.14-.43v1.86ZM1237.08,407.36l-.4.07c-.84-1.35-2.09-2.03-3.75-2.03-1.26,0-2.41.38-3.45,1.13-1.04.75-1.56,1.63-1.56,2.62,0,1.2.44,2.15,1.33,2.86.89.71,1.75,1.06,2.59,1.06,1.68,0,2.52-.74,2.52-2.23,0-1.68-.65-2.52-1.94-2.52-.24,0-.5.09-.79.28-.29.18-.43.41-.43.67,0,.52.32.78.95.78.28,0,.63-.13,1.04-.4-.24,1.15-.76,1.73-1.56,1.73-.35,0-.67-.21-.95-.63-.28-.42-.42-.77-.42-1.06,0-.55.23-1.03.7-1.44.46-.41,1.03-.61,1.69-.61.89,0,1.71.24,2.46.73.75.49,1.13,1.17,1.13,2.06,0,.93-.47,1.72-1.41,2.37-.94.65-1.97.98-3.07.98-1.31,0-2.45-.45-3.42-1.36-.97-.91-1.46-2.05-1.46-3.42s.51-2.71,1.53-3.82,2.11-1.66,3.29-1.66c2.94,0,4.74,1.28,5.38,3.85Z" style="fill: #42210b;"/>
      <path d="M1255.91,424.29c-.31.51-.7.76-1.16.76-.29,0-.55-.14-.8-.42-.24-.28-.37-.64-.37-1.08,0-.53.24-.97.73-1.33.49-.35,1.02-.53,1.59-.53.64,0,1.25.27,1.81.81s.85,1.11.85,1.71c0,1.42-.4,2.54-1.2,3.37-.8.83-1.83,1.25-3.09,1.25-.91,0-1.69-.47-2.34-1.41-.65-.94-.98-2.1-.98-3.47,0-1.59.7-3.06,2.1-4.38s2.83-1.99,4.29-1.99c3,0,5.73,1.33,8.22,3.99s3.73,5.66,3.73,9c0,4.14-1.42,7.87-4.27,11.19-2.85,3.32-5.9,4.98-9.16,4.98-3.7,0-7.03-1.5-9.99-4.5-2.96-3-4.44-6.54-4.44-10.61,0-3.43,1.36-6.7,4.08-9.8,2.72-3.1,5.93-5.07,9.64-5.91l.4.83c-2.84.51-5.19,2.15-7.05,4.92-1.86,2.77-2.78,5.78-2.78,9.03,0,4.45.93,8.06,2.78,10.84,1.85,2.78,4.29,4.17,7.3,4.17,2.31,0,4.43-1.41,6.37-4.22,1.94-2.81,2.91-6.1,2.91-9.86s-.84-6.6-2.53-9.05c-1.69-2.45-3.74-3.67-6.16-3.67-1.31,0-2.4.51-3.26,1.54-.87,1.03-1.3,2.15-1.3,3.37,0,.78.3,1.44.9,2.01.6.56,1.17.85,1.7.85.71,0,1.42-.27,2.14-.81.71-.54,1.07-1.07,1.07-1.58,0-1.08-.62-1.63-1.85-1.63-.52,0-.77.28-.77.83,0,.24.3.51.9.8Z" style="fill: #42210b;"/>
      <path d="M1280.32,425.92c2.35-6.62,5.85-9.93,10.5-9.93,3.3,0,6.27,1.39,8.9,4.17,2.63,2.78,3.95,6.04,3.95,9.78,0,4.1-1.22,8.04-3.65,11.82-2.44,3.79-5,5.68-7.71,5.68-1.17,0-2.32-.52-3.44-1.56-1.12-1.04-1.68-2.14-1.68-3.29,0-.93.48-1.76,1.43-2.49.95-.73,1.93-1.1,2.92-1.1,2.33,0,3.49.72,3.49,2.16s-.84,2.06-2.52,2.06c-.77,0-1.23-.17-1.36-.5l.27-.33c.29.09.55.13.78.13.45,0,.68-.4.68-1.21,0-.9-.44-1.34-1.31-1.34-.47,0-.9.35-1.28,1.04-.38.69-.57,1.39-.57,2.1,0,2.11.95,3.17,2.86,3.17,4.32,0,6.48-5.76,6.48-17.27,0-2.79-.84-5.41-2.52-7.85-1.68-2.45-3.63-3.67-5.85-3.67-1.86,0-3.56.74-5.1,2.21-1.54,1.47-2.75,3.2-3.64,5.19-.89,1.98-1.33,3.11-1.33,3.37l-1.29,17.49,3.59-.9.4,1.49c-2.35.58-4.08.86-5.21.86s-2.7-.07-4.78-.2l.3-1.49,4.42.37c.04-.86.07-1.9.07-3.09,0-9.04-.84-17.63-2.52-25.77l-3.75.63-.4-1.23c3.08-.38,6.25-1.35,9.53-2.92l-.63,12.42Z" style="fill: #42210b;"/>
    </g>
    <g>
      <path d="M1907.42,635.64l-1.59.67c-.79-1.64-1.58-2.85-2.37-3.64-.78-.79-1.66-1.34-2.63-1.66-.97-.32-2.41-.48-4.32-.48-.62,0-1.44.01-2.46.03l-25.53.58c-2.8.04-4.64.34-5.5.89-.62.39-.92.85-.92,1.4,0,.66.66,1.68,1.98,3.07l-1.28,1.01-5.42-6.36-1.74-2.12c.84-1.8,1.96-3.08,3.35-3.84,1.39-.76,3.61-1.19,6.67-1.28l-10.01-13.21c4.85-7.37,7.28-12.39,7.28-15.06,0-.66-.21-1.22-.62-1.68-.3-.34-.72-.51-1.26-.51-.59,0-1.24.22-1.95.65-.96.57-1.58.85-1.88.85-.43,0-.8-.16-1.11-.48-.31-.32-.46-.71-.46-1.16,0-.57.23-1.03.68-1.37.62-.5,1.41-.75,2.39-.75,1.09,0,2.32.31,3.67.94s2.83,1.56,4.43,2.79c.34.25.66.48.96.68l6.67,4.88c2.48-3.3,4.87-5.62,7.14-6.95,2.28-1.33,4.83-2,7.66-2,3.28,0,6.32.84,9.13,2.51,2.8,1.68,5.01,4.19,6.63,7.55,1.62,3.36,2.43,6.82,2.43,10.37,0,5.45-1.89,10.7-5.67,15.76,1.3,1.23,2.36,2.41,3.2,3.55.83,1.14,1.66,2.59,2.48,4.37ZM1873.27,601.63l-4.24-3.11-7.49,17.37,5.97,8.04,5.76-.14v-22.16ZM1899.49,618.84c1.41-2.87,2.12-5.73,2.12-8.58,0-3.03-.67-5.88-2-8.54s-3.05-4.66-5.16-5.98c-2.11-1.32-4.26-1.98-6.47-1.98-4.67,0-8.8,2.52-12.4,7.57l15.6,11.43c.93-1.71,1.4-3.24,1.4-4.61,0-1.89-.89-3.43-2.67-4.64-.37-.23-.55-.46-.55-.68,0-.14.07-.28.21-.41s.31-.19.51-.19c.71,0,1.69.36,2.94,1.08,1.25.72,2.27,1.78,3.04,3.18.77,1.4,1.16,2.88,1.16,4.42s-.39,3.41-1.16,5.43l3.41,2.5ZM1895.96,623.25c.73-.66,1.2-1.1,1.4-1.33.16-.16.58-.73,1.26-1.71l-20.37-14.92v18.37l17.7-.41Z" style="fill: #42210b;"/>
      <path d="M1896.77,652.7l-.75.2c-.88-1.47-1.74-2.45-2.59-2.91-.85-.47-2.24-.7-4.17-.7h-10.09l7.06,9.11c-1.17,1.7-2.31,2.84-3.43,3.43-1.12.59-2.66.89-4.61.89h-17.31c-.92-2.34-1.83-4.29-2.73-5.83-.71-1.18-1.55-2.3-2.53-3.37,1.34-1.63,2.37-3.25,3.1-4.87.73-1.62,1.44-4.02,2.15-7.2h.52c.58.82,1.25,1.34,2.01,1.55,1.13.33,3.74.49,7.84.49h16.63c2.16,0,3.73-.22,4.7-.66.97-.44,1.87-1.27,2.71-2.5l.72.52c-.63,1.46-1.12,2.46-1.45,2.99-.33.54-.77,1.06-1.31,1.56,1.42,1.97,2.31,3.38,2.68,4.2s.65,1.86.82,3.11ZM1863.53,649.28l-2.96,7.49h16.16c1.49,0,2.52-.14,3.08-.41s1.2-.93,1.91-1.97l-3.92-5.11h-14.27Z" style="fill: #42210b;"/>
      <path d="M1881.08,666.82l5.15,7.54c-1.11.93-2,1.79-2.67,2.56-.67.77-1.49,1.89-2.47,3.34-1.67-1.17-3.25-2.01-4.75-2.53-1.5-.52-3.17-.78-5.01-.78s-4.1.23-6.98.69c-1.91.33-3.34.49-4.28.49-2.03,0-3.87-.44-5.53-1.31-1.66-.87-3.14-2.14-4.46-3.8-.8-.98-1.67-2.48-2.61-4.51l1.09-.49c1.11,1.7,2.4,2.96,3.86,3.77s2.99,1.22,4.58,1.22c1.09,0,2.81-.25,5.16-.75,3.63-.79,6.53-1.18,8.69-1.18,1.53,0,2.93.13,4.19.39,1.26.26,2.73.72,4.39,1.39.86-.65,1.64-1.46,2.35-2.44l-1.56-2.8.85-.82ZM1896.2,676.67v3.73l-6.12-3.88v-1.29l6.12,1.44Z" style="fill: #42210b;"/>
      <path d="M1886.23,703.98l-4.26,5.12-2.11-2.33h-15.07c-1.74,0-2.99.25-3.73.73-.52.31-.78.66-.78,1.03,0,.27.31.8.92,1.58l-.89.7-4.68-6.1c1.07-1.53,2.03-2.52,2.88-2.99.85-.47,2.21-.72,4.06-.76-1.91-2.97-4.23-6-6.95-9.09,1.45-1.85,2.73-3.06,3.83-3.63s2.55-.86,4.35-.86h14.18c1,0,1.65-.09,1.95-.27.54-.31.8-.74.8-1.27,0-.4-.33-1-.98-1.81l.89-.7,5.57,6.79-4.26,5.21-1.91-2.15h-15.26c-1.13,0-1.96.14-2.49.43-.53.29-1.19.98-2,2.09l3.87,5.26h15.67l2.11-2.04,4.26,5.04Z" style="fill: #42210b;"/>
      <path d="M1886.23,730.02l-5.21,4.35-3.86-4.35,4.6-3.63-2.59-2.84h-16.71l-2.35,3.27,2.33,2.96-.92.66-5.88-7.36c1.4-1.57,2.4-2.88,3.01-3.94.61-1.06,1.09-2.22,1.43-3.48h.63c.59.84,1.19,1.39,1.79,1.65.6.26,1.76.39,3.46.39h11.71c1.47,0,2.45-.16,2.94-.49.49-.33.73-.69.73-1.08,0-.43-.38-1.02-1.15-1.77l.83-.7,5.2,5.99c-1.24,1.63-2.33,2.75-3.24,3.34-.57.38-1.37.58-2.38.58l5.63,6.47Z" style="fill: #42210b;"/>
      <path d="M1885,757.79l-.4,1.03c-1.61-1.03-2.84-1.69-3.69-1.97-.85-.28-2-.42-3.46-.42h-12.23c-2.03,0-3.3.14-3.8.43s-.76.63-.76,1.03c0,.21.05.43.16.65.09.14.42.55.98,1.23l-.89.7-5.28-6.1c1.15-1.48,2.18-2.47,3.09-2.97.91-.5,2.18-.78,3.8-.84l-6.89-8.71c2.68-3.28,5.33-4.92,7.93-4.92,1.74,0,3.38.35,4.92,1.07,2.01.94,4.36,2.56,7.04,4.87l7.38-3.45.74.4c-.06.74-.09,1.3-.09,1.66,0,2.25.89,4.24,2.67,5.96-.81,1.39-1.47,2.92-1.96,4.57-.49,1.65-.74,2.92-.74,3.79,0,.4.07.71.21.92.14.21.56.56,1.25,1.06ZM1870.99,750.59l3.26-6.95c-2.34-1.07-4.39-1.61-6.15-1.61-3.1,0-5.66,1.41-7.67,4.22l3.5,4.33h7.07ZM1879.54,750.59l3.02-9.82-7.4,3.49-2.97,6.32h7.35Z" style="fill: #42210b;"/>
      <path d="M1883.1,762.88l9.88,8.01v.83l-7.92-.29v5.77h-3.21v-5.77h-19.35l-2.38,3.22,1.43,1.84-.86.72-5.05-6.33c2.2-2.15,3.69-4.58,4.48-7.31h.57c.52.77,1.05,1.27,1.61,1.52.71.33,1.73.49,3.08.49h16.47v-2.7h1.26Z" style="fill: #42210b;"/>
      <path d="M1886.23,785.62l-4.23,5.1-2.2-2.27h-15.62c-1.65,0-2.72.14-3.21.41-.5.28-.75.56-.75.86,0,.21.05.4.14.57.13.24.52.74,1.15,1.5l-.89.7-5-6.16c1.09-1.54,2.12-2.53,3.09-2.97.97-.44,2.66-.66,5.07-.66h16.02l2.2-2.15,4.23,5.07ZM1896.05,787.79v3.65l-6.2-3.96v-1.15l6.2,1.46Z" style="fill: #42210b;"/>
      <path d="M1882.04,817.5h-21.47c-1.17-2.88-2.12-4.96-2.87-6.24-.55-.98-1.24-1.92-2.07-2.82,1.68-2.78,2.85-5.08,3.5-6.9.5-1.38.79-2.94.86-4.68l.57-.29c.61.73,1.17,1.19,1.67,1.38.65.27,1.75.4,3.3.4h15.76c1.17,3.51,2.81,6.51,4.94,9-1.8,2.72-3.2,6.1-4.19,10.15ZM1863.36,804.15l-3.07,7.49h18.23c1.1-2.35,1.83-4.02,2.17-5,.25-.69.46-1.52.64-2.5h-17.97Z" style="fill: #42210b;"/>
      <path d="M1886.23,841l-4.31,3.92,2.7,2.8-.77.82c-1.23-1.35-2.16-2.17-2.79-2.46-.85-.39-2.01-.58-3.49-.58h-13.69c-1.27,0-2.21.2-2.82.61-.4.25-.61.53-.61.84,0,.27.37.9,1.12,1.9l-.89.7-5.05-6.16c1.2-1.59,2.26-2.62,3.18-3.07.92-.45,2.41-.68,4.46-.68h15.71l2.68-2.54-3.93-4.9h-15.93l-2.05,2.15-4.12-5.07,4.12-5.1,2.05,2.15h14.65c2.08,0,3.49-.21,4.21-.63.5-.29.75-.62.75-.98,0-.38-.37-.96-1.12-1.73l.89-.7,5.05,6.1c-1.26,1.69-2.25,2.75-2.98,3.17-.73.42-1.75.63-3.04.63h-1.04l7.06,8.8Z" style="fill: #42210b;"/>
    </g>
    <g>
      <path d="M1125.53,502.21c-1.66,1.17-3.88,2.78-6.67,4.81-3.32-3.5-5.91-5.86-7.76-7.1-1.95-1.28-3.92-1.92-5.91-1.92-3.1,0-5.57,1.59-7.43,4.78-1.86,3.14-2.79,7.3-2.79,12.48,0,6.46,1.88,11.79,5.64,15.99,3.76,4.25,8.47,6.37,14.14,6.37,1.95,0,3.69-.51,5.24-1.53.66-.49,1.64-1.46,2.92-2.92.93-1.02,1.7-1.53,2.32-1.53,1.11,0,1.66.95,1.66,2.85v17.06h-2.72v-12.28c-2.79.31-5.3.53-7.53.66-2.24.13-4.21.2-5.94.2-15.13,0-22.7-7.54-22.7-22.63,0-6.11,1.08-10.73,3.25-13.87,2.04-2.96,4.91-5.4,8.63-7.3,3.45-1.68,6.48-2.52,9.09-2.52,3.94,0,8.27,2.17,13.01,6.5.8-.31,1.63-.71,2.49-1.19.86-.49,1.78-1.04,2.75-1.66l1.73,2.46c-.62.35-1.76,1.12-3.42,2.29Z" style="fill: #42210b;"/>
      <path d="M1148.37,533.87c-.84,1.88-2.47,3.57-4.89,5.06-1.8,1.07-3.34,1.61-4.6,1.61-2.49,0-4.54-1.11-6.15-3.33-1.57-2.26-2.36-5.12-2.36-8.57,0-3.83,1.11-7.04,3.34-9.6,2.22-2.65,4.98-3.97,8.28-3.97,5.1,0,7.65,3.7,7.65,11.1,0,3.41-.42,5.98-1.27,7.71ZM1143.31,521.79c-1.3-2.45-2.97-3.68-5-3.68-2.38,0-3.57,2.68-3.57,8.05,0,1.69.18,3.22.55,4.6.36,1.38.89,2.56,1.58,3.54.69.98,1.5,1.75,2.44,2.3.94.56,1.98.83,3.13.83,1.92,0,2.88-2.22,2.88-6.67,0-3.53-.67-6.52-2.01-8.97Z" style="fill: #42210b;"/>
      <path d="M1175.29,536.34c-.73.58-1.59,1.23-2.59,1.96-2.34,1.34-3.8,2.01-4.37,2.01-.27,0-.55-.09-.83-.26-.29-.17-.43-.34-.43-.49,0-.08.04-.3.12-.66.08-.36.19-.91.34-1.64l.52-6.96c.23-2.99-.21-5.56-1.32-7.71-1.11-2.15-2.51-3.22-4.2-3.22l-3.74,2.47v16.85l-4.49,2.65v-13.86c0-2.07-.19-3.57-.58-4.49-.38-1.07-1.29-2.34-2.7-3.8l3.97-2.3c1.23.84,2.36,1.84,3.39,2.99.08.15.9-.33,2.47-1.44,1.92-1.34,3.43-2.24,4.54-2.7,2.88.96,4.81,2.11,5.81,3.45,1,1.3,1.5,3.36,1.5,6.15,0,1.3-.07,2.89-.2,4.75-.13,1.86-.34,4.05-.6,6.58.61-.38,1.28-.83,2.01-1.35.73-.52,1.53-1.1,2.42-1.75l.81,1.27c-.5.42-1.11.92-1.84,1.5Z" style="fill: #42210b;"/>
      <path d="M1180.75,556.76c-1.46,1.57-3.24,2.36-5.35,2.36-.81,0-1.65-.27-2.53-.81-.84-.5-1.26-1.02-1.26-1.55,0-.77.44-1.88,1.32-3.34,1.69,2.03,3.16,3.05,4.43,3.05.34,0,.66-.2.95-.6.29-.4.54-.97.75-1.7.21-.73.36-1.57.46-2.53.09-.96.14-2.01.14-3.16v-23.7c0-2.19-.31-3.58-.92-4.2-1.57-1.57-2.36-2.47-2.36-2.7,0-.42,2.34-1.19,7.02-2.3.08-.04.19-.06.34-.06.65,0,.98.84.98,2.53v23.06c0,7.55-1.32,12.77-3.97,15.64ZM1186.96,507.64l-2.7,2.99c-.58.65-.94.98-1.09.98-.84,0-1.27-.25-1.27-.75,0-.42.42-1.65,1.27-3.68.23-.61.47-1.19.72-1.73.25-.54.55-.8.89-.8h2.53c.65,0,.98.23.98.69,0,.54-.44,1.3-1.32,2.3Z" style="fill: #42210b;"/>
      <path d="M1207.09,540.02c-.27-.08-.52-.17-.75-.29-.23-.12-.48-.23-.75-.34-1.04-.61-1.96-1.44-2.76-2.47-3.03,2.38-5.14,3.57-6.33,3.57-1.88,0-3.59-.73-5.12-2.19-1.46-1.53-2.19-3.26-2.19-5.18v-12.37l-1.73-1.72c-.38-.38-.58-.73-.58-1.04,0-.38.5-.67,1.5-.86l4.95-.92c.46,0,.74.03.83.09s.14.28.14.66c0,.31-.06,1.24-.17,2.79s-.27,3.73-.46,6.53v1.5c0,6.1,1.59,9.14,4.77,9.14,1.53,0,2.74-.91,3.62-2.73.88-1.82,1.32-4.29,1.32-7.39v-1.5c0-.31-.02-.79-.06-1.47-.04-.67-.1-1.52-.17-2.56l-2.36-2.42c-.46-.46-.69-.84-.69-1.15,0-.46,1.09-.84,3.28-1.15l2.93-.34c.61,0,.94.02.98.06.31.08.46.34.46.8,0,.19-.12,4.91-.34,14.15-.04,1.96.12,3.34.46,4.14.27.5,1.11,1.29,2.53,2.36l-3.34,2.3Z" style="fill: #42210b;"/>
      <path d="M1225.72,521.96c-1.84-1.73-2.95-2.59-3.34-2.59-.31,0-1.46.86-3.45,2.59l-.69,16.22-4.26,3.22-.46-.35c-.15-.11-.31-.23-.46-.34.61-.61.92-1.57.92-2.88v-13.17c0-1.42-.19-2.43-.58-3.05-.31-.58-1.26-1.67-2.88-3.28-.04-.04-.06-.08-.06-.12,0-.31,1.07-.79,3.22-1.44,1.88-.5,3.07-.75,3.57-.75.81,0,1.32,1.23,1.55,3.68l3.91-3.16c.84-.65,1.48-.98,1.9-.98.08,0,.67.34,1.78,1.04.88.58,1.32,1.09,1.32,1.55,0,1.11-.67,2.38-2.01,3.8Z" style="fill: #42210b;"/>
      <path d="M1246.43,540.08c-.38.31-.88.46-1.5.46-.27,0-.86-.15-1.78-.46s-1.44-.52-1.55-.63c-1.3-1.19-2.13-1.78-2.47-1.78-.54.31-1.86,1.23-3.97,2.76-.42.31-1.3.46-2.65.46-1.19,0-2.18-.43-2.96-1.29-.79-.86-1.18-1.95-1.18-3.25,0-1,.28-2.01.83-3.05.55-1.04,1.22-1.78,1.98-2.24l7.94-4.83c-.12-4.6-1.44-6.9-3.97-6.9-.58,0-1.34.31-2.3.92.84.73,1.26,1.3,1.26,1.73,0,.31-.5.73-1.5,1.27-1,.46-1.63.69-1.9.69-.38,0-.8-.21-1.24-.63-.44-.42-.66-.88-.66-1.38,0-.88,1.15-2.17,3.45-3.85,2.15-1.53,3.64-2.3,4.49-2.3,1.38,0,2.95.77,4.72,2.3,1.76,1.5,2.65,2.78,2.65,3.85v12.08c0,.61.26,1.28.78,1.98.52.71,1.58,1.43,3.19,2.16l-1.67,1.96ZM1239.12,530.24c0-.61-.03-.97-.09-1.06s-.3-.14-.72-.14c-1.27,0-2.61.94-4.03,2.82-.73.88-1.09,1.99-1.09,3.34,0,1.65.77,2.47,2.3,2.47.65,0,1.42-.27,2.3-.81.88-.58,1.32-1.13,1.32-1.67v-4.95Z" style="fill: #42210b;"/>
      <path d="M1262.19,539.5c-1.84.77-3.32,1.15-4.43,1.15-2.03,0-3.74-.71-5.12-2.13-1.53-1.5-2.21-3.32-2.01-5.46l.69-10.41c0-1.5-1.19-2.93-3.57-4.31.04-.04,1.44-1.04,4.2-2.99,1.88-1.76,3.16-2.65,3.85-2.65.19,0,.27,1.4.23,4.2h7.82c.5,0,.67.23.52.69l-.98,2.42h-7.42c-.34,3.68-.52,6.92-.52,9.72,0,2.53.44,4.51,1.32,5.95.88,1.44,2.05,2.16,3.51,2.16.96,0,2.32-.33,4.08-.98l.69,1.09c-.42.38-1.38.9-2.88,1.55Z" style="fill: #42210b;"/>
      <path d="M1271.1,539.04c-1.07.77-1.9,1.15-2.47,1.15-.42,0-.67-.06-.75-.17-.08-.11-.11-.44-.11-.98v-14.26c0-2.19-.31-3.58-.92-4.2-1.53-1.53-2.3-2.43-2.3-2.7,0-.46,2.32-1.23,6.96-2.3.23-.08.38-.12.46-.12.42,0,.63.71.63,2.13v18.17l2.53-1.78c.27,0,.58.38.92,1.15l-4.95,3.91ZM1274.27,507.64l-2.7,2.99c-.58.65-.94.98-1.09.98-.84,0-1.27-.25-1.27-.75,0-.42.42-1.65,1.27-3.68.19-.61.39-1.19.6-1.73.21-.54.49-.8.83-.8h2.7c.65,0,.98.23.98.69,0,.54-.44,1.3-1.32,2.3Z" style="fill: #42210b;"/>
      <path d="M1295.26,533.87c-.84,1.88-2.47,3.57-4.89,5.06-1.8,1.07-3.34,1.61-4.6,1.61-2.49,0-4.54-1.11-6.15-3.33-1.57-2.26-2.36-5.12-2.36-8.57,0-3.83,1.11-7.04,3.34-9.6,2.22-2.65,4.98-3.97,8.28-3.97,5.1,0,7.65,3.7,7.65,11.1,0,3.41-.42,5.98-1.27,7.71ZM1290.2,521.79c-1.3-2.45-2.97-3.68-5-3.68-2.38,0-3.57,2.68-3.57,8.05,0,1.69.18,3.22.55,4.6.36,1.38.89,2.56,1.58,3.54.69.98,1.5,1.75,2.44,2.3.94.56,1.98.83,3.13.83,1.92,0,2.88-2.22,2.88-6.67,0-3.53-.67-6.52-2.01-8.97Z" style="fill: #42210b;"/>
      <path d="M1322.17,536.34c-.73.58-1.59,1.23-2.59,1.96-2.34,1.34-3.8,2.01-4.37,2.01-.27,0-.55-.09-.83-.26-.29-.17-.43-.34-.43-.49,0-.08.04-.3.12-.66.08-.36.19-.91.34-1.64l.52-6.96c.23-2.99-.21-5.56-1.32-7.71-1.11-2.15-2.51-3.22-4.2-3.22l-3.74,2.47v16.85l-4.49,2.65v-13.86c0-2.07-.19-3.57-.58-4.49-.38-1.07-1.29-2.34-2.7-3.8l3.97-2.3c1.23.84,2.36,1.84,3.39,2.99.08.15.9-.33,2.47-1.44,1.92-1.34,3.43-2.24,4.54-2.7,2.88.96,4.81,2.11,5.81,3.45,1,1.3,1.5,3.36,1.5,6.15,0,1.3-.07,2.89-.2,4.75-.13,1.86-.34,4.05-.6,6.58.61-.38,1.28-.83,2.01-1.35.73-.52,1.53-1.1,2.42-1.75l.81,1.27c-.5.42-1.11.92-1.84,1.5Z" style="fill: #42210b;"/>
    </g>
    <g>
      <path d="M766.27,901.04l-.55.79h-.21c-.3.5-.46,1.12-.48,1.85-.05.96-.09,1.55-.14,1.78-.43,1.05-.98,2.67-1.64,4.85-.77,1.34-1.85,2.51-3.21,3.49h-.55l-.99,2.02-1.5.48-.55.75-.68.27c-.11.3-.36.64-.75,1.03h-.55v.21l-1.98.27c-.87,1.3-1.78,2.12-2.73,2.46h-1.03l-1.71,1.03h-1.98c-.48.34-1.3.63-2.48.87-1.17.24-1.86.45-2.07.63l-.96-.27c-.52.32-1.44.41-2.73.27l-1.3-.75c-.05-.39-.27-.93-.68-1.64-.87-.75-1.8-1.05-2.8-.89l-2.3,1.03h-2.47c-.21.27-.73.73-1.57,1.37-.84.64-1.43,1.03-1.78,1.16-.91.07-1.96-.11-3.14-.55-1.64.18-2.3.27-1.98.27-.39,0-.97-.1-1.74-.29-.77-.19-1.37-.29-1.78-.29-.16,0-.32.01-.48.03l-1.23-1.23c-.36-.73-.58-1.67-.65-2.84-.11-1.44-.24-2.4-.38-2.91.41-.96,1-2.38,1.78-4.27.68-.55,1.09-1.03,1.23-1.44l.99-.27c1.25,0,2.1.16,2.53.48.84.91,1.3,1.94,1.37,3.08l-.14,1.44-.75.51h-1.23l-.75-1.06-1.03-.21c-.98.78-1.63,1.65-1.95,2.63.39,1.34.52,2.39.41,3.14l.55.75,2.02-.27,1.23.75c.91-.18,2.03-.43,3.35-.75.59-.59,1.23-1.09,1.91-1.5l.14-.68,1.91-.27.34-1.23.82-.55.27-.48c-.05-.46.02-1.1.21-1.95.25-1.09.39-1.75.41-1.98l.89-.62-.55-1.23.55-1.78.68-.21.55-.55v-1.71l.79-1.23c-.07-.39.02-1.12.27-2.19.23-1,.46-1.7.68-2.08l-.21-.55.96-1.71c-.14-1.64-.21-2.48-.21-2.53,0-1.03.32-2.55.96-4.58l1.37-.82c.21-.66.5-1.34.89-2.05h.27l.48-1.23h.27l.48-.31.48-1.98-.48-2.46-.48-.55v-.21c-.98.21-1.98.27-3.01.21l-1.98.75c-1-.18-2.36.07-4.07.75l-.21.55-1.98.68c-1.5,1.34-2.35,2.45-2.53,3.32.46.57,1.12,1.39,1.98,2.46v.55c-.14.75-.39,1.66-.75,2.73l-1.23.75-.96-.27-.55-.48-.75-.27c-.96-.89-1.53-1.89-1.71-3.01.11-.32.21-1.06.27-2.22.02-.91.27-1.62.75-2.12l-.07-.89,1.3-1.5,1.44-.48.27-.27c1.62-.73,3.12-.98,4.51-.75l.96-1.23c1.82-.68,3.59-1.09,5.3-1.23.75.09,1.75,0,3.01-.27l.21-.75.75-.75v-.48l1.98-.75c.71-.55,1.21-1.14,1.5-1.78l.48-.21v-.27c1.44-1.05,2.61-1.62,3.52-1.71l1.03-.79,1.5-.27,1.23.48h1.03c.82-.23,1.73-.48,2.73-.75l1.5.27.21.48h.27v.27l1.03.31c.68-.27,1.5-.72,2.46-1.33h.68l1.81-1.23v-.48c0-.09-.07-.68-.21-1.78,1.05-.91,2.53-1.41,4.44-1.5l.55.55.48,1.71c-.14.32-.64.91-1.5,1.78v.48l-.75,1.23c-2.12,1.34-3.96,2.02-5.51,2.02-.23,0-.98-.16-2.26-.48-1.64.82-3.12,1.32-4.45,1.5l-1.3-.48h-.48l-1.51-.75-.62.21-.34.27-1.03.27-1.23.96-.31,1.03-.48.21-.34,1.78c1.85-.09,3.41-.04,4.68.14l1.44.89c.21.02.74.13,1.61.31.71.16,1.24.22,1.61.17l1.23.48.27,1.03,1.5.75,1.98.21v.27c.23.23,1.31.73,3.25,1.5l1.3,1.23c.36,1.46.89,2.56,1.57,3.32-.09.87-.05,1.6.14,2.19l-.27,1.23c.23.41.55,1.05.96,1.91.23.57.4,1.37.51,2.39.14,1.32.24,2.14.31,2.46.07.32.16.98.27,1.98ZM759.23,897.28c-.25-1.34-.38-1.96-.38-1.85,0,.18.09-.36.27-1.64-.37-1.87-1-3.44-1.92-4.72v-.48l.27-2.02-.27-1.03c-.57-.41-1.4-.75-2.5-1.03-.87-.23-1.74-.46-2.63-.68l-1.92-1.71c-2.33-.34-3.38-.52-3.15-.55-1.03.16-1.95.48-2.77.96-.46.78-1.21,1.78-2.25,3.01v.27l-1.23,2.29v1.23l.27.48-.27,1.78-.48.48-.75,1.98.2,2.26-1.02.75-.48,1.5c.18.23.27,1.47.27,3.73,0,.27-.09.71-.27,1.3-.18.59-.25,1.07-.2,1.44l-.55,1.3v.48l-1.23,1.23.27.27-.27.21v2.53l-1.23,2.46-.75.55v.96c-.59,1-1,2.18-1.23,3.52l1.5,1.23h1.23c.64.32,1.05.66,1.23,1.03l1.23.27c.77-.36,1.94-.8,3.48-1.3l.27-.48,2.53-.27c.71-.21,1.2-.52,1.47-.96.73-.27,1.57-.36,2.53-.27l1.23-.48c.62-.8,1.28-1.32,1.98-1.57,1-1.21,1.66-2.36,1.98-3.45.71-.55,1.59-1.37,2.67-2.46-.09-.27-.14-.52-.14-.75,0-.04.07-.48.21-1.3l.27-.21c.07-.32.18-1.53.34-3.62.07-.91.52-2.22,1.37-3.93-.05-.18.05-.84.27-1.98h.27v-.75h.24Z" style="fill: #42210b;"/>
      <path d="M773.21,921.94c-1.06.76-1.88,1.14-2.44,1.14-.42,0-.66-.06-.74-.17-.08-.11-.11-.43-.11-.97v-14.1c0-2.16-.3-3.54-.91-4.15-1.52-1.51-2.27-2.41-2.27-2.67,0-.46,2.29-1.21,6.88-2.27.23-.08.38-.11.45-.11.42,0,.63.7.63,2.1v17.96l2.5-1.76c.26,0,.57.38.91,1.14l-4.89,3.87ZM776.33,890.91l-2.67,2.96c-.57.64-.93.97-1.08.97-.83,0-1.25-.25-1.25-.74,0-.42.42-1.63,1.25-3.64.19-.61.39-1.17.6-1.71.21-.53.48-.8.82-.8h2.67c.64,0,.97.23.97.68,0,.53-.44,1.29-1.31,2.27Z" style="fill: #42210b;"/>
      <path d="M798.84,901.48l-1.36,6.54c-.87,4.02-2.5,7.84-4.89,11.48-1.78,2.58-3.03,3.87-3.75,3.87-.49,0-1.31-1.02-2.44-3.07-1.44-2.58-2.46-4.87-3.07-6.88l-2.5-7.96c-.3-.87-.78-1.65-1.42-2.33-.15-.19-.45-.42-.88-.68-.44-.26-.65-.47-.65-.63,0-.3.38-.78,1.14-1.42.76-.61,1.36-.91,1.82-.91.34,0,.72.11,1.14.34.42.23.82.52,1.22.88.4.36.76.79,1.08,1.28.32.49.58,1.02.77,1.59l3.47,10.86c.26.8.63,1.56,1.11,2.3.47.74.88,1.11,1.22,1.11.15,0,.39-.18.71-.54.32-.36.68-.86,1.08-1.51.4-.64.8-1.41,1.22-2.3.42-.89.8-1.85,1.14-2.87.72-2.05,1.08-3.67,1.08-4.89,0-.68-.11-1.63-.34-2.84-.23-1.17-.34-1.91-.34-2.22,0-.64.93-.97,2.79-.97.57,0,.85.19.85.57,0,.46-.06.85-.17,1.19Z" style="fill: #42210b;"/>
      <path d="M805.95,921.94c-1.06.76-1.88,1.14-2.44,1.14-.42,0-.66-.06-.74-.17-.08-.11-.11-.43-.11-.97v-14.1c0-2.16-.3-3.54-.91-4.15-1.52-1.51-2.27-2.41-2.27-2.67,0-.46,2.29-1.21,6.88-2.27.23-.08.38-.11.45-.11.42,0,.63.7.63,2.1v17.96l2.5-1.76c.26,0,.57.38.91,1.14l-4.89,3.87ZM809.07,890.91l-2.67,2.96c-.57.64-.93.97-1.08.97-.83,0-1.25-.25-1.25-.74,0-.42.42-1.63,1.25-3.64.19-.61.39-1.17.6-1.71.21-.53.48-.8.82-.8h2.67c.64,0,.97.23.97.68,0,.53-.44,1.29-1.31,2.27Z" style="fill: #42210b;"/>
      <path d="M834.36,919.27c-.72.57-1.57,1.21-2.56,1.93-2.31,1.33-3.75,1.99-4.32,1.99-.27,0-.54-.08-.82-.26-.28-.17-.43-.33-.43-.48,0-.08.04-.29.11-.65.08-.36.19-.9.34-1.62l.51-6.88c.23-2.96-.21-5.49-1.31-7.62-1.1-2.12-2.48-3.18-4.15-3.18l-3.69,2.44v16.65l-4.43,2.61v-13.7c0-2.05-.19-3.52-.57-4.43-.38-1.06-1.27-2.31-2.67-3.75l3.92-2.27c1.21.83,2.33,1.82,3.35,2.96.08.15.89-.32,2.44-1.42,1.89-1.33,3.39-2.22,4.49-2.67,2.84.95,4.75,2.08,5.74,3.41.98,1.29,1.48,3.32,1.48,6.08,0,1.29-.07,2.85-.2,4.69-.13,1.84-.33,4.01-.6,6.51.61-.38,1.27-.82,1.99-1.34.72-.51,1.51-1.09,2.39-1.73l.8,1.25c-.49.42-1.1.91-1.82,1.48Z" style="fill: #42210b;"/>
      <path d="M854.99,922.97c-.38.3-.87.46-1.48.46-.27,0-.85-.15-1.76-.46s-1.42-.51-1.53-.62c-1.29-1.17-2.1-1.76-2.44-1.76-.53.3-1.84,1.21-3.92,2.73-.42.3-1.29.45-2.61.45-1.17,0-2.15-.43-2.93-1.28-.78-.85-1.17-1.92-1.17-3.21,0-.98.27-1.99.82-3.01.55-1.02,1.2-1.76,1.96-2.22l7.84-4.77c-.11-4.55-1.42-6.82-3.92-6.82-.57,0-1.33.3-2.27.91.83.72,1.25,1.29,1.25,1.71,0,.3-.49.72-1.48,1.25-.99.46-1.61.68-1.88.68-.38,0-.79-.21-1.22-.62-.44-.42-.65-.87-.65-1.36,0-.87,1.14-2.14,3.41-3.81,2.12-1.51,3.6-2.27,4.43-2.27,1.36,0,2.92.76,4.66,2.27,1.74,1.48,2.61,2.75,2.61,3.81v11.94c0,.61.26,1.26.77,1.96.51.7,1.56,1.41,3.15,2.13l-1.65,1.93ZM847.78,913.25c0-.61-.03-.96-.09-1.05-.06-.09-.29-.14-.71-.14-1.25,0-2.58.93-3.98,2.79-.72.87-1.08,1.97-1.08,3.3,0,1.63.76,2.44,2.27,2.44.64,0,1.4-.26,2.27-.8.87-.57,1.31-1.12,1.31-1.65v-4.89Z" style="fill: #42210b;"/>
      <path d="M870.57,922.4c-1.82.76-3.28,1.14-4.38,1.14-2.01,0-3.69-.7-5.06-2.1-1.52-1.48-2.18-3.28-1.99-5.4l.68-10.29c0-1.48-1.17-2.9-3.52-4.26.04-.04,1.42-1.02,4.15-2.96,1.86-1.74,3.13-2.61,3.81-2.61.19,0,.26,1.38.23,4.15h7.73c.49,0,.66.23.51.68l-.97,2.39h-7.33c-.34,3.64-.51,6.84-.51,9.61,0,2.5.44,4.46,1.31,5.88.87,1.42,2.03,2.13,3.47,2.13.95,0,2.29-.32,4.04-.97l.68,1.08c-.42.38-1.36.89-2.84,1.53Z" style="fill: #42210b;"/>
      <path d="M879.38,921.94c-1.06.76-1.88,1.14-2.44,1.14-.42,0-.66-.06-.74-.17-.08-.11-.11-.43-.11-.97v-14.1c0-2.16-.3-3.54-.91-4.15-1.52-1.51-2.27-2.41-2.27-2.67,0-.46,2.29-1.21,6.88-2.27.23-.08.38-.11.45-.11.42,0,.63.7.63,2.1v17.96l2.5-1.76c.26,0,.57.38.91,1.14l-4.89,3.87ZM882.5,890.91l-2.67,2.96c-.57.64-.93.97-1.08.97-.83,0-1.25-.25-1.25-.74,0-.42.42-1.63,1.25-3.64.19-.61.39-1.17.6-1.71.21-.53.48-.8.82-.8h2.67c.64,0,.97.23.97.68,0,.53-.44,1.29-1.31,2.27Z" style="fill: #42210b;"/>
      <path d="M903.25,916.83c-.83,1.86-2.44,3.52-4.83,5-1.78,1.06-3.3,1.59-4.55,1.59-2.46,0-4.49-1.1-6.08-3.3-1.55-2.24-2.33-5.06-2.33-8.47,0-3.79,1.1-6.95,3.3-9.49,2.2-2.62,4.93-3.92,8.18-3.92,5.04,0,7.56,3.66,7.56,10.97,0,3.37-.42,5.91-1.25,7.62ZM898.25,904.89c-1.29-2.42-2.94-3.64-4.95-3.64-2.35,0-3.52,2.65-3.52,7.96,0,1.67.18,3.18.54,4.55.36,1.36.88,2.53,1.56,3.5.68.97,1.49,1.72,2.42,2.27.93.55,1.96.82,3.1.82,1.89,0,2.84-2.2,2.84-6.59,0-3.49-.66-6.44-1.99-8.87Z" style="fill: #42210b;"/>
      <path d="M929.85,919.27c-.72.57-1.57,1.21-2.56,1.93-2.31,1.33-3.75,1.99-4.32,1.99-.27,0-.54-.08-.82-.26-.28-.17-.43-.33-.43-.48,0-.08.04-.29.11-.65.08-.36.19-.9.34-1.62l.51-6.88c.23-2.96-.21-5.49-1.31-7.62-1.1-2.12-2.48-3.18-4.15-3.18l-3.69,2.44v16.65l-4.43,2.61v-13.7c0-2.05-.19-3.52-.57-4.43-.38-1.06-1.27-2.31-2.67-3.75l3.92-2.27c1.21.83,2.33,1.82,3.35,2.96.08.15.89-.32,2.44-1.42,1.89-1.33,3.39-2.22,4.49-2.67,2.84.95,4.75,2.08,5.74,3.41.98,1.29,1.48,3.32,1.48,6.08,0,1.29-.07,2.85-.2,4.69-.13,1.84-.33,4.01-.6,6.51.61-.38,1.27-.82,1.99-1.34.72-.51,1.51-1.09,2.39-1.73l.8,1.25c-.49.42-1.1.91-1.82,1.48Z" style="fill: #42210b;"/>
    </g>
    <g>
      <path d="M252.59,502.63c-.25.94-.55,2.21-.88,3.81l-.41.23v.23h-.41c-.45-.1-.74-.18-.88-.23-.33-.61-.61-1.17-.82-1.7h-.47c-.78.39-1.77.62-2.96.67.45-.02-.57-.03-3.05-.03-.45.12-.66.18-.64.18l-.18.47c-.25,0-.64,0-1.17-.03s-.92-.03-1.17-.03c-1.54,0-2.13.02-1.76.06-.43-.12-1.06-.27-1.9-.47-1.54-.29-2.81-.51-3.81-.64l-1.11.47h-.23l.23.64c-.14.62-.35,1.14-.65,1.55v.18c.47,1.41.7,2.25.7,2.52,0,.18-.02.33-.06.47l-.88.64s-.18.66-.47,2.11l.23.47c1.46.55,3.05.82,4.74.82-.08,0,.35-.08,1.29-.23l.67-.41,1.87-.41.88.23,1.05-.23,1.05.23.64-.88,1.76.23c-.02.21,0,.51.07.88.07.37.1.64.1.82,0,.04-.06.47-.18,1.29-1.41,1.02-2.4,1.86-2.99,2.52l.82.91c.08.1.21,1.23.41,3.4h-.82c-.47-.35-1.11-.92-1.93-1.7v-.41l-1.29-.88-.23-.64-.41-.44-.18-.64-.64-.64c-.12-.04-1.49-.39-4.13-1.05l-.41-.64-1.29-.23-.82.23-.47.41-.64.23v.64l-.41.64c-.06.98-.21,2.06-.47,3.25-.14.39-.29,1.02-.47,1.88h-.23l.12.88-.82,1.17c-.04.72-.39,1.6-1.06,2.64l-1.11.88.23.23-.65.82.18.47c1.39,0,2.89.27,4.51.82.7.29,1.42.58,2.14.86.72.28,1.49.43,2.31.45l.47.41h.82c1.48.68,2.49,1.62,3.02,2.81l1.93.41c.6.68,1.25,1.11,1.93,1.29l.41-1.05.88-.47h1.29l1.23-.82c.59-.66.88-1.39.88-2.17h.64l.64-.64h1.08l1.05.88v1.05l-.41.88c-.57.21-1.57.49-3.02.82l-.88.64-.41.88-.82.41h-.64c-.84.78-1.62,1.35-2.34,1.7h-1.29l-.47-.64-1.7-.18c-.23-.2-1.46-.57-3.66-1.11l-.82-.59c-1.62-.1-2.77-.31-3.46-.64l-.82-1.11c-.55-.1-1.33-.31-2.34-.64v-.18c-.16.04-.94-.18-2.34-.64l-1.55-1.52c-.22.45-.29.88-.23,1.29l-.18.23-.23.88-1.46,1.46c-.1.16-.25.37-.47.64-.78.72-1.55,1.16-2.31,1.32-.41.1-1.3.15-2.67.15-.2,0-.5-.03-.91-.09s-.71-.09-.91-.09c-.37,0-.95.05-1.73.15-.78.1-1.37.15-1.76.15-1.13,0-1.84-.18-2.11-.53l-.64-.82v-.47c.18-.74.53-1.66,1.05-2.75l1.05-.41.23-.23c.66-.14,1.46-.51,2.4-1.11.64-.41,1.79-.62,3.43-.62l2.11.18v-.18h1.41l.88-1.7.06-.88.88-.76c.08-.7.27-1.31.59-1.82-.02-.14.15-1.04.5-2.72.33-1.6.54-2.53.62-2.78.19-.33.47-.85.82-1.55.27-.51.56-1.03.85-1.55.33-.66.49-1.22.47-1.67l-.67-.82-1.29.18c-1.17.92-2.09,1.35-2.75,1.29l-.88.76-1.23.12-1.11-.41.23-.88c.27-.23.7-.53,1.29-.88l.23-.41.82-.23.23-.41c.51-.2,1.37-.34,2.58-.44,1.11-.1,1.98-.3,2.61-.62.08-.96.39-1.74.94-2.34.21-.62.25-1.23.12-1.82l.41-.53-.23-1.29.64-.44v-.47c.16-.16.55-.31,1.17-.47l.64-.64.12-.76-.23-.64-1.29-.64h-1.7c-.43-.33-.79-.55-1.08-.64l-.88-.88c-.88-.27-1.93-.41-3.16-.41-1.48,0-2.7.14-3.63.41-.18.14-.39.35-.64.64l-1.52.88-.41.82v.88l.64.18c.57-.14,1.43-.33,2.58-.59l1.05.41c.21.43.29.78.23,1.05-.92.43-1.99.64-3.22.64-.63,0-1.19-.21-1.7-.64-.74-.06-1.4-.27-1.96-.64l.23-1.05h.21c.18-.45.74-1.09,1.7-1.93.08-.25.23-.61.47-1.05.9-.33,2.25-.76,4.04-1.29l.23-.41,1.35-.29,1.17.29,1.29-.23c.43.16,1.3.23,2.61.23.37-.1.59-.18.64-.23.08.02.84.32,2.29.91.98.39,1.72.58,2.23.56.86-1.04,1.31-1.72,1.35-2.05,1.31-1.23,2.58-1.85,3.81-1.85.16,0,.31,0,.47.03.94-.74,2.45-1.23,4.54-1.46l.18-.12c.16-.31.37-.67.64-1.08,1.15-.39,2.09-.61,2.81-.64l.82.64v.85l.41.64-.41.88c.06.27,0,.62-.18,1.05l-.47.41-1.46.47c-.62-.02-1.48-.18-2.58-.47v-.41l-.88-.29-.18-.23h-.64l-.23.41c-1.02.08-1.81.27-2.37.59l-.41.64h.18l-1.05,1.05-1.29.18-.18.47.29.53v.47l.23.18.41,1.05h.64l.23.23,1.9.41.64.47c1.64.39,2.99.59,4.04.59,1.39,0,2.75-.06,4.1-.18,1.31-.8,2.36-1.23,3.16-1.29l.26-.41c.59-.23,1.15-.66,1.7-1.29h1.29l.88.64.41.64ZM217.35,534.36l-1.05-.64c-1.02-.08-1.76-.12-2.23-.12-.96,0-1.93.22-2.93.67-1.09.51-1.85,1.16-2.26,1.96v.41l.47.23h1.46c1.88-.86,3.39-1.21,4.54-1.05.82-.35,1.48-.84,1.99-1.46ZM241.08,516.37l-.12-.64-1.11-.35c-.66.12-1.35.33-2.05.64.59.51,1.09.86,1.52,1.05l.88-.06.88-.64Z" style="fill: #42210b;"/>
      <path d="M272.26,534.92c-.66.52-1.44,1.11-2.34,1.77-2.11,1.21-3.43,1.82-3.95,1.82-.24,0-.49-.08-.75-.23-.26-.16-.39-.3-.39-.44,0-.07.03-.27.1-.6.07-.33.17-.82.31-1.48l.47-6.29c.21-2.7-.19-5.03-1.2-6.97-1.01-1.94-2.27-2.91-3.8-2.91l-3.38,2.24v15.24l-4.06,2.39v-12.53c0-1.87-.17-3.22-.52-4.06-.35-.97-1.16-2.11-2.44-3.43l3.59-2.08c1.11.76,2.13,1.66,3.07,2.7.07.14.81-.29,2.24-1.3,1.73-1.21,3.1-2.03,4.11-2.44,2.6.87,4.35,1.91,5.25,3.12.9,1.18,1.35,3.03,1.35,5.56,0,1.18-.06,2.61-.18,4.29-.12,1.68-.3,3.67-.55,5.95.55-.35,1.16-.75,1.82-1.22.66-.47,1.39-1,2.18-1.59l.73,1.14c-.45.38-1.01.83-1.66,1.35Z" style="fill: #42210b;"/>
      <path d="M288.62,536.06c-.68.69-1.22,1.18-1.64,1.46-1.21.8-2.62,1.2-4.21,1.2-2.63,0-4.67-.84-6.11-2.52-1.44-1.68-2.16-4.1-2.16-7.25,0-1.98.21-3.77.62-5.38.42-1.61,1.01-2.97,1.79-4.08.78-1.11,1.72-1.97,2.83-2.57,1.11-.61,2.36-.91,3.74-.91,1.59,0,3.08.43,4.47,1.3,1.39.87,2.08,1.79,2.08,2.76,0,.42-.38,1.01-1.14,1.77-.73.76-1.21,1.14-1.46,1.14-.04,0-.64-.75-1.82-2.24-1.21-1.53-2.32-2.29-3.33-2.29-1.49,0-2.44.78-2.86,2.34-.28,1.04-.42,3.12-.42,6.24,0,1.25.16,2.4.47,3.46s.75,1.97,1.33,2.73c.57.76,1.25,1.36,2.03,1.79.78.43,1.64.65,2.57.65,1.18,0,2.69-1.13,4.52-3.38l1.14,1.14c-.97,1.08-1.79,1.96-2.47,2.65Z" style="fill: #42210b;"/>
      <path d="M313.52,535.15c-.54.43-1.21.95-2,1.53-2.11,1.21-3.43,1.82-3.95,1.82-.49,0-.73-.92-.73-2.76l-.05-8.84c-.07-4.89-1.91-7.33-5.51-7.33l-3.54,2.24v15.24l-4.37,2.39v-30.63c0-1.66-.43-2.93-1.3-3.8-1.39-1.39-2.08-2.2-2.08-2.44,0-.42,2.25-.94,6.76-1.56.45-.1.73-.03.83.21s.16.78.16,1.61v16.74c.1.1.81-.26,2.13-1.09,1.77-1.11,3.1-1.84,4-2.18,2.67.94,4.51,1.96,5.51,3.07,1.07,1.21,1.61,3.09,1.61,5.62,0,2.81-.02,5.05-.05,6.73-.04,1.68-.09,2.85-.16,3.51.55-.35,1.1-.7,1.64-1.07.54-.36,1.1-.77,1.69-1.22l.73,1.14c-.35.28-.79.63-1.33,1.07Z" style="fill: #42210b;"/>
      <path d="M332.43,538.3c-.35.28-.8.42-1.35.42-.24,0-.78-.14-1.61-.42s-1.3-.47-1.4-.57c-1.18-1.07-1.92-1.61-2.24-1.61-.49.28-1.68,1.11-3.59,2.5-.38.28-1.18.42-2.39.42-1.07,0-1.97-.39-2.68-1.17-.71-.78-1.07-1.76-1.07-2.94,0-.9.25-1.82.75-2.76.5-.94,1.1-1.61,1.79-2.03l7.18-4.37c-.1-4.16-1.3-6.24-3.59-6.24-.52,0-1.21.28-2.08.83.76.66,1.14,1.18,1.14,1.56,0,.28-.45.66-1.35,1.14-.9.42-1.47.62-1.72.62-.35,0-.72-.19-1.12-.57-.4-.38-.6-.8-.6-1.25,0-.8,1.04-1.96,3.12-3.48,1.94-1.39,3.29-2.08,4.06-2.08,1.25,0,2.67.69,4.26,2.08,1.59,1.35,2.39,2.51,2.39,3.48v10.92c0,.55.23,1.15.7,1.79.47.64,1.43,1.29,2.89,1.95l-1.51,1.77ZM325.82,529.41c0-.55-.03-.88-.08-.96-.05-.09-.27-.13-.65-.13-1.14,0-2.36.85-3.64,2.55-.66.8-.99,1.8-.99,3.02,0,1.49.69,2.24,2.08,2.24.59,0,1.28-.24,2.08-.73.8-.52,1.2-1.02,1.2-1.51v-4.47Z" style="fill: #42210b;"/>
      <path d="M355.46,534.92c-.66.52-1.44,1.11-2.34,1.77-2.11,1.21-3.43,1.82-3.95,1.82-.24,0-.49-.08-.75-.23-.26-.16-.39-.3-.39-.44,0-.07.03-.27.1-.6.07-.33.17-.82.31-1.48l.47-6.29c.21-2.7-.19-5.03-1.2-6.97-1.01-1.94-2.27-2.91-3.8-2.91l-3.38,2.24v15.24l-4.06,2.39v-12.53c0-1.87-.17-3.22-.52-4.06-.35-.97-1.16-2.11-2.44-3.43l3.59-2.08c1.11.76,2.13,1.66,3.07,2.7.07.14.81-.29,2.24-1.3,1.73-1.21,3.1-2.03,4.11-2.44,2.6.87,4.35,1.91,5.25,3.12.9,1.18,1.35,3.03,1.35,5.56,0,1.18-.06,2.61-.18,4.29-.12,1.68-.3,3.67-.55,5.95.55-.35,1.16-.75,1.82-1.22.66-.47,1.39-1,2.18-1.59l.73,1.14c-.45.38-1.01.83-1.66,1.35Z" style="fill: #42210b;"/>
      <path d="M369.45,537.78c-1.66.69-3,1.04-4,1.04-1.84,0-3.38-.64-4.63-1.92-1.39-1.35-1.99-3-1.82-4.94l.62-9.41c0-1.35-1.08-2.65-3.22-3.9.03-.03,1.3-.94,3.8-2.7,1.7-1.59,2.86-2.39,3.48-2.39.17,0,.24,1.27.21,3.8h7.07c.45,0,.61.21.47.62l-.88,2.18h-6.71c-.31,3.33-.47,6.26-.47,8.79,0,2.29.4,4.08,1.2,5.38.8,1.3,1.85,1.95,3.17,1.95.87,0,2.1-.29,3.69-.88l.62.99c-.38.35-1.25.82-2.6,1.4Z" style="fill: #42210b;"/>
      <path d="M400.91,536.95c-2.01,1.39-3.14,2.08-3.38,2.08-.83,0-1.21-.42-1.14-1.25l.52-9.05c.14-2.7-.1-4.8-.73-6.29-.62-1.49-1.53-2.24-2.7-2.24-.69,0-1.28.19-1.77.57l-1.82,1.14-.36,15.6-4.32,1.92.47-12.38c.03-.94-.02-1.82-.16-2.65-.14-.83-.35-1.56-.62-2.18-.28-.62-.59-1.12-.94-1.48-.35-.36-.71-.55-1.09-.55-.66,0-1.32.21-1.98.62l-2.39,1.4v15.29l-4.16,1.92v-14.14c0-1.66-.94-3.41-2.81-5.25.76-1.14,1.89-2.04,3.38-2.7,1.18.42,2.34,1.32,3.48,2.7l7.12-3.59,4.21,3.28,6.76-3.02c.28-.17.68-.07,1.2.31,2.39,1.63,3.59,3.88,3.59,6.76,0,.07,0,.26-.03.57-.02.31-.04.76-.08,1.35-.07.69-.11,1.36-.13,2-.02.64-.04,1.29-.08,1.95-.1,3.54-.05,5.27.16,5.2.31-.17.67-.38,1.07-.62.4-.24.84-.52,1.33-.83l.47,1.14c0,.17-1.02.97-3.07,2.39Z" style="fill: #42210b;"/>
      <path d="M417.34,522.6l-7.64,4.58c-.1.49-.16,1.02-.16,1.61,0,1.87.62,3.5,1.87,4.89,1.14,1.32,2.37,1.98,3.69,1.98.42,0,.78-.1,1.09-.31l3.9-2.55.94,1.56-5.46,3.59c-.87.55-1.77.83-2.7.83-2.5,0-4.44-.88-5.82-2.65-1.39-1.77-2.08-4.32-2.08-7.64,0-1.87.23-3.59.68-5.15.52-1.8,1.21-3.05,2.08-3.74.69-.59,1.28-1.06,1.77-1.4.48-.35.87-.61,1.14-.78,1.18-.62,2.46-.94,3.85-.94s2.81,1.04,4.26,3.12l1.98-1.2.94,1.2-4.32,3.02ZM414.01,519.79c-.62-.69-1.14-1.04-1.56-1.04-1.11,0-1.79.49-2.03,1.46-.17.66-.34,1.38-.49,2.16-.16.78-.27,1.62-.34,2.52l4.52-2.6c.59-.38.88-.75.88-1.09,0-.28-.33-.75-.99-1.4Z" style="fill: #42210b;"/>
      <path d="M443.03,534.92c-.66.52-1.44,1.11-2.34,1.77-2.11,1.21-3.43,1.82-3.95,1.82-.24,0-.49-.08-.75-.23-.26-.16-.39-.3-.39-.44,0-.07.03-.27.1-.6.07-.33.17-.82.31-1.48l.47-6.29c.21-2.7-.19-5.03-1.2-6.97-1.01-1.94-2.27-2.91-3.8-2.91l-3.38,2.24v15.24l-4.06,2.39v-12.53c0-1.87-.17-3.22-.52-4.06-.35-.97-1.16-2.11-2.44-3.43l3.59-2.08c1.11.76,2.13,1.66,3.07,2.7.07.14.81-.29,2.24-1.3,1.73-1.21,3.1-2.03,4.11-2.44,2.6.87,4.35,1.91,5.25,3.12.9,1.18,1.35,3.03,1.35,5.56,0,1.18-.06,2.61-.18,4.29-.12,1.68-.3,3.67-.55,5.95.55-.35,1.16-.75,1.82-1.22.66-.47,1.39-1,2.18-1.59l.73,1.14c-.45.38-1.01.83-1.66,1.35Z" style="fill: #42210b;"/>
      <path d="M457.01,537.78c-1.66.69-3,1.04-4,1.04-1.84,0-3.38-.64-4.63-1.92-1.39-1.35-1.99-3-1.82-4.94l.62-9.41c0-1.35-1.08-2.65-3.22-3.9.03-.03,1.3-.94,3.8-2.7,1.7-1.59,2.86-2.39,3.48-2.39.17,0,.24,1.27.21,3.8h7.07c.45,0,.61.21.47.62l-.88,2.18h-6.71c-.31,3.33-.47,6.26-.47,8.79,0,2.29.4,4.08,1.2,5.38.8,1.3,1.85,1.95,3.17,1.95.87,0,2.1-.29,3.69-.88l.62.99c-.38.35-1.25.82-2.6,1.4Z" style="fill: #42210b;"/>
    </g>
  </g>
</svg>