<?xml version="1.0" encoding="UTF-8"?>
<svg id="Layer_1" xmlns="http://www.w3.org/2000/svg" xmlns:xlink="http://www.w3.org/1999/xlink" viewBox="0 0 936.99 909.68">
  <defs>
    <linearGradient id="linear-gradient" x1="605.75" y1="378.68" x2="803.82" y2="539.07" gradientUnits="userSpaceOnUse">
      <stop offset="0" stop-color="red"/>
      <stop offset=".14" stop-color="#ff7f00"/>
      <stop offset=".26" stop-color="#ff0"/>
      <stop offset=".37" stop-color="lime"/>
      <stop offset=".48" stop-color="aqua"/>
      <stop offset=".57" stop-color="#007fff"/>
      <stop offset=".68" stop-color="blue"/>
      <stop offset=".8" stop-color="#7f00ff"/>
      <stop offset=".91" stop-color="#f0f"/>
      <stop offset="1" stop-color="red"/>
    </linearGradient>
    <linearGradient id="linear-gradient-2" x1="158.77" y1="56.8" x2="427.91" y2="274.75" xlink:href="#linear-gradient"/>
    <linearGradient id="linear-gradient-3" x1="359.42" y1="462.67" x2="821.77" y2="837.08" xlink:href="#linear-gradient"/>
    <linearGradient id="linear-gradient-4" x1="10.07" y1="528.32" x2="392.2" y2="837.76" xlink:href="#linear-gradient"/>
    <linearGradient id="linear-gradient-5" x1="116.64" y1="255.05" x2="438.76" y2="515.9" xlink:href="#linear-gradient"/>
  </defs>
  <path d="M545.75,471.57c9.86-39.45,52.6-104.11,105.21-133.7,0,0-26.3,32.88-15.34,38.36,16.44,8.77,59.18-59.18,115.07-61.37,0,0-41.64,19.73-32.88,35.07,6.58,9.86,35.07-13.15,82.19-13.15,59.18,0,111.78,36.16,136.99,64.66-41.64-12.05-118.36,8.77-141.37,28.49-35.07-26.3-101.92-23.01-140.27,21.92-48.22,54.79-77.81,118.36-85.48,138.08-16.44-13.15-31.78-25.21-41.64-32.88-8.77-6.58-16.44-9.86-25.21-13.15,46.03-64.66,138.08-160,245.48-164.38-61.37-8.77-154.52,32.88-202.74,92.05Z" style="fill: url(#linear-gradient);"/>
  <path d="M139.18,272.12c-9.86-35.07-1.1-71.23,12.05-97.53,9.86,30.68,26.3,65.75,77.81,92.05-4.38-24.11-1.1-56.99,5.48-82.19-15.34-55.89,20.82-101.92,65.75-101.92,71.23,0,87.67,89.86,48.22,147.95,19.73,29.59,50.41,54.79,72.33,74.52,1.1,1.1,4.38,4.38,6.58,6.58,32.88-37.26,55.89-96.44,55.89-141.37C483.29,85.82,427.4,6.91,312.33.34c-74.52-3.29-123.84,17.53-160,55.89-16.44,17.53-52.6,60.27-46.03,138.08,5.48,54.79,35.07,81.1,32.88,77.81Z" style="fill: url(#linear-gradient-2);"/>
  <path d="M770.41,619.52c19.73,3.29,49.32,26.3,49.32,58.08,0,50.41-64.66,67.95-100.82,59.18,38.36-26.3,32.88-101.92-13.15-128.22,15.34,42.74-30.68,84.38-75.62,48.22-24.11-19.73-82.19-66.85-108.49-88.77-25.21-21.92-55.89-9.86-67.95-18.63-13.15-12.05-4.38-39.45-23.01-51.51-16.44-7.67-30.68-3.29-49.32-9.86-16.44-6.58-28.49-19.73-26.3-36.16-6.58,12.05-7.67,32.88,5.48,48.22,12.05,14.25,32.88,23.01,41.64,39.45,9.86,19.73-7.67,49.32,41.64,87.67,23.01,17.53,61.37,47.12,84.38,69.04,39.45,35.07,17.53,78.9,23.01,117.26,6.58,43.84,42.74,69.04,65.75,75.62-21.92-19.73-29.59-65.75,0-95.34,0,37.26,27.4,95.34,88.77,111.78,63.56,16.44,132.6-19.73,147.95-46.03-24.11,12.05-72.33-1.1-92.05-19.73,76.71,9.86,144.66-42.74,146.85-109.59,0-65.75-63.56-117.26-138.08-110.69Z" style="fill: url(#linear-gradient-3);"/>
  <path d="M516.16,705c-21.92-18.63-52.6-44.93-71.23-61.37-25.21,44.93-84.38,110.69-143.56,110.69-105.21,0-157.81-151.23-32.88-272.88-6.58-3.29-14.25-5.48-23.01-5.48-32.88,0-59.18,29.59-59.18,29.59,0-31.78,9.86-52.6,21.92-67.95-36.16,13.15-100.82,58.08-117.26,81.1,1.1-59.18,16.44-76.71,6.58-92.05l-2.19-2.19S8.77,481.43,0,575.68c0,0,12.05-16.44,21.92-19.73,6.58-3.29,13.15,0,6.58,19.73-2.19,6.58-59.18,161.1,52.6,266.3,0,0-12.05-31.78-5.48-41.64,3.29-5.48,8.77-5.48,15.34,3.29,5.48,6.58,9.86,12.05,15.34,18.63,7.67,10.96,17.53,20.82,29.59,29.59,32.88,24.11,78.9,42.74,130.41,42.74,141.37,0,215.89-103.01,255.34-184.11-2.19-2.19-3.29-3.29-5.48-5.48Z" style="fill: url(#linear-gradient-4);"/>
  <path d="M506.3,420.07c-3.29,9.86-16.44,25.21-29.59,28.49,2.19-15.34-9.86-23.01-19.73-26.3,5.48-28.49-6.58-64.66-48.22-104.11-35.07-35.07-100.82-81.1-97.53-141.37-9.86,13.15-18.63,51.51-8.77,72.33,28.49,32.88,88.77,69.04,104.11,124.93-26.3-65.75-154.52-117.26-150.14-207.12-16.44,16.44-26.3,81.1-13.15,113.97,25.21,15.34,46.03,39.45,49.32,62.47-23.01-52.6-117.26-62.47-143.56-124.93-6.58,23.01-3.29,51.51,9.86,69.04,0,0-23.01-8.77-72.33-6.58,17.53,5.48,52.6,35.07,49.32,53.7-5.48,18.63-72.33,38.36-105.21,71.23,49.32-9.86,72.33-2.19,81.1,18.63,5.48,15.34-2.19,35.07-5.48,58.08,16.44-18.63,72.33-55.89,113.97-64.66-9.86-3.29-35.07-8.77-44.93-8.77,29.59-35.07,95.34-46.03,131.51-38.36-23.01-2.19-69.04,12.05-87.67,26.3,16.44,3.29,31.78,6.58,44.93,12.05-21.92,8.77-49.32,35.07-59.18,62.47,28.49-19.73,85.48-15.34,95.34,26.3,6.58,28.49-13.15,52.6-23.01,58.08,8.77,2.19,28.49,0,36.16-5.48-3.29,12.05-19.73,31.78-31.78,35.07,29.59,0,72.33-19.73,84.38-48.22,0,0-18.63,6.58-26.3-2.19-8.77-8.77,3.29-44.93,3.29-44.93,0,0-12.05,15.34-21.92,6.58-9.86-9.86,3.29-42.74,8.77-49.32-9.86-3.29-36.16-6.58-48.22-5.48,32.88-12.05,107.4-18.63,115.07-3.29,6.58,12.05-9.86,35.07-9.86,35.07,13.15-2.19,51.51,0,64.66,15.34,13.15,16.44,5.48,38.36,5.48,38.36,29.59-15.34,55.89-61.37,49.31-107.4ZM359.45,365.27c32.88,14.25,42.74,44.93,42.74,44.93-28.49,0-36.16-21.92-42.74-44.93Z" style="fill: url(#linear-gradient-5);"/>
</svg>