<?xml version="1.0" encoding="UTF-8"?>
<svg id="Layer_1" xmlns="http://www.w3.org/2000/svg" xmlns:xlink="http://www.w3.org/1999/xlink" viewBox="0 0 936.99 909.68">
  <defs>
    <linearGradient id="linear-gradient" x1="30.25" y1="232.52" x2="784.63" y2="843.4" gradientUnits="userSpaceOnUse">
      <stop offset="0" stop-color="red"/>
      <stop offset=".14" stop-color="#ff7f00"/>
      <stop offset=".26" stop-color="#ff0"/>
      <stop offset=".37" stop-color="lime"/>
      <stop offset=".48" stop-color="aqua"/>
      <stop offset=".57" stop-color="#007fff"/>
      <stop offset=".68" stop-color="blue"/>
      <stop offset=".8" stop-color="#7f00ff"/>
      <stop offset=".91" stop-color="#f0f"/>
      <stop offset="1" stop-color="red"/>
    </linearGradient>
  </defs>
  <path d="M545.75,471.57c9.86-39.45,52.6-104.11,105.21-133.7,0,0-26.3,32.88-15.34,38.36,16.44,8.77,59.18-59.18,115.07-61.37,0,0-41.64,19.73-32.88,35.07,6.58,9.86,35.07-13.15,82.19-13.15,59.18,0,111.78,36.16,136.99,64.66-41.64-12.05-118.36,8.77-141.37,28.49-35.07-26.3-101.92-23.01-140.27,21.92-48.22,54.79-77.81,118.36-85.48,138.08-16.44-13.15-31.78-25.21-41.64-32.88-8.77-6.58-16.44-9.86-25.21-13.15,46.03-64.66,138.08-160,245.48-164.38-61.37-8.77-154.52,32.88-202.74,92.05ZM139.18,272.12c-9.86-35.07-1.1-71.23,12.05-97.53,9.86,30.68,26.3,65.75,77.81,92.05-4.38-24.11-1.1-56.99,5.48-82.19-15.34-55.89,20.82-101.92,65.75-101.92,71.23,0,87.67,89.86,48.22,147.95,19.73,29.59,50.41,54.79,72.33,74.52,1.1,1.1,4.38,4.38,6.58,6.58,32.88-37.26,55.89-96.44,55.89-141.37C483.29,85.82,427.4,6.91,312.33.34c-74.52-3.29-123.84,17.53-160,55.89-16.44,17.53-52.6,60.27-46.03,138.08,5.48,54.79,35.07,81.1,32.88,77.81ZM135.89,334.59c3.29-18.63-31.78-48.22-49.32-53.7,49.32-2.19,72.33,6.58,72.33,6.58-13.15-17.53-16.44-46.03-9.86-69.04,26.3,62.47,120.55,72.33,143.56,124.93-3.29-23.01-24.11-47.12-49.32-62.47-13.15-32.88-3.29-97.53,13.15-113.97-4.38,89.86,123.84,141.37,150.14,207.12-15.34-55.89-75.62-92.05-104.11-124.93-9.86-20.82-1.1-59.18,8.77-72.33-3.29,60.27,62.47,106.3,97.53,141.37,41.64,39.45,53.7,75.62,48.22,104.11,9.86,3.29,21.92,10.96,19.73,26.3,13.15-3.29,26.3-18.63,29.59-28.49,6.58,46.03-19.73,92.05-49.31,107.4,0,0,7.67-21.92-5.48-38.36-13.15-15.34-51.51-17.53-64.66-15.34,0,0,16.44-23.01,9.86-35.07-7.67-15.34-82.19-8.77-115.07,3.29,12.05-1.1,38.36,2.19,48.22,5.48-5.48,6.58-18.63,39.45-8.77,49.32,9.86,8.77,21.92-6.58,21.92-6.58,0,0-12.05,36.16-3.29,44.93,7.67,8.77,26.3,2.19,26.3,2.19-12.05,28.49-54.79,48.22-84.38,48.22,12.05-3.29,28.49-23.01,31.78-35.07-7.67,5.48-27.4,7.67-36.16,5.48,9.86-5.48,29.59-29.59,23.01-58.08-9.86-41.64-66.85-46.03-95.34-26.3,9.86-27.4,37.26-53.7,59.18-62.47-13.15-5.48-28.49-8.77-44.93-12.05,18.63-14.25,64.66-28.49,87.67-26.3-36.16-7.67-101.92,3.29-131.51,38.36,9.86,0,35.07,5.48,44.93,8.77-41.64,8.77-97.53,46.03-113.97,64.66,3.29-23.01,10.96-42.74,5.48-58.08-8.77-20.82-31.78-28.49-81.1-18.63,32.88-32.88,99.73-52.6,105.21-71.23ZM359.45,365.27c6.58,23.01,14.25,44.93,42.74,44.93,0,0-9.86-30.69-42.74-44.93ZM770.41,619.52c19.73,3.29,49.32,26.3,49.32,58.08,0,50.41-64.66,67.95-100.82,59.18,38.36-26.3,32.88-101.92-13.15-128.22,15.34,42.74-30.68,84.38-75.62,48.22-24.11-19.73-82.19-66.85-108.49-88.77-25.21-21.92-55.89-9.86-67.95-18.63-13.15-12.05-4.38-39.45-23.01-51.51-16.44-7.67-30.68-3.29-49.32-9.86-16.44-6.58-28.49-19.73-26.3-36.16-6.58,12.05-7.67,32.88,5.48,48.22,12.05,14.25,32.88,23.01,41.64,39.45,9.86,19.73-7.67,49.32,41.64,87.67,23.01,17.53,61.37,47.12,84.38,69.04,39.45,35.07,17.53,78.9,23.01,117.26,6.58,43.84,42.74,69.04,65.75,75.62-21.92-19.73-29.59-65.75,0-95.34,0,37.26,27.4,95.34,88.77,111.78,63.56,16.44,132.6-19.73,147.95-46.03-24.11,12.05-72.33-1.1-92.05-19.73,76.71,9.86,144.66-42.74,146.85-109.59,0-65.75-63.56-117.26-138.08-110.69ZM516.16,705c-21.92-18.63-52.6-44.93-71.23-61.37-25.21,44.93-84.38,110.69-143.56,110.69-105.21,0-157.81-151.23-32.88-272.88-6.58-3.29-14.25-5.48-23.01-5.48-32.88,0-59.18,29.59-59.18,29.59,0-31.78,9.86-52.6,21.92-67.95-36.16,13.15-100.82,58.08-117.26,81.1,1.1-59.18,16.44-76.71,6.58-92.05l-2.19-2.19S8.77,481.43,0,575.68c0,0,12.05-16.44,21.92-19.73,6.58-3.29,13.15,0,6.58,19.73-2.19,6.58-59.18,161.1,52.6,266.3,0,0-12.05-31.78-5.48-41.64,3.29-5.48,8.77-5.48,15.34,3.29,5.48,6.58,9.86,12.05,15.34,18.63,7.67,10.96,17.53,20.82,29.59,29.59,32.88,24.11,78.9,42.74,130.41,42.74,141.37,0,215.89-103.01,255.34-184.11-2.19-2.19-3.29-3.29-5.48-5.48Z" style="fill: url(#linear-gradient);"/>
</svg>